<svg width="25" height="24" viewBox="0 0 25 24" fill="none" xmlns="http://www.w3.org/2000/svg">
<path opacity="0.5" d="M19.2554 13.3489C19.2328 13.5299 19.2102 13.7146 19.165 13.8918C19.1461 13.9822 19.1235 14.0727 19.0971 14.1594C19.0896 14.182 19.0858 14.2046 19.0783 14.2273C19.067 14.2687 19.0557 14.3064 19.0443 14.3479C19.0368 14.3743 19.0255 14.4007 19.018 14.4271L18.9237 14.6947C18.8898 14.7852 18.8483 14.8681 18.8106 14.9548C18.7955 14.9887 18.7804 15.0189 18.7654 15.0528C18.7616 15.0641 18.7541 15.0754 18.7503 15.0868C18.7277 15.1282 18.7051 15.1735 18.6862 15.2149C18.6787 15.23 18.6711 15.2451 18.6636 15.2564C18.6259 15.328 18.5882 15.3996 18.5467 15.4713C18.4977 15.5542 18.4487 15.6409 18.3959 15.7238C18.3432 15.8068 18.2866 15.8859 18.2263 15.9689C18.2112 15.9877 18.1961 16.0103 18.1811 16.0292C18.1509 16.0669 18.1208 16.1083 18.0906 16.146C18.0755 16.1649 18.0604 16.1875 18.0454 16.2064C18.0152 16.2478 17.9851 16.2855 17.9511 16.3232C17.9172 16.3609 17.887 16.3986 17.8531 16.4363C17.7212 16.5871 17.5779 16.7341 17.4271 16.8736C17.2763 17.0093 17.118 17.1488 16.9521 17.2732C16.7863 17.4014 16.6091 17.5144 16.4319 17.6313C16.3678 17.669 16.3075 17.7067 16.2434 17.7406C16.168 17.7821 16.0889 17.8273 16.0135 17.865C15.9645 17.8914 15.9155 17.914 15.8665 17.9367C15.7685 17.9857 15.6705 18.0309 15.5724 18.0724C15.4857 18.1101 15.399 18.144 15.3123 18.1779C15.2972 18.1855 15.2822 18.1892 15.2709 18.193C15.0635 18.2646 14.8562 18.3362 14.6413 18.3928C14.5244 18.4229 14.4076 18.4493 14.2907 18.4757C14.0344 18.5285 13.7743 18.57 13.5104 18.5926C13.4991 18.5926 13.4916 18.5926 13.4803 18.5926C13.4275 18.5964 13.3785 18.6001 13.3257 18.6039C13.2164 18.6114 13.1033 18.619 12.994 18.619H12.6585C12.5454 18.619 12.4398 18.6077 12.3267 18.6039C12.2174 18.5964 12.1043 18.5888 11.995 18.5737L11.667 18.5323L11.5841 18.521L11.5125 18.5097L11.3692 18.4833L11.0789 18.4267L11.0073 18.4116C10.9847 18.4079 10.9583 18.4041 10.9282 18.3928L10.7434 18.3438C10.2534 18.2081 9.78217 18.0158 9.33734 17.7783C8.78319 17.4768 8.26675 17.1035 7.80684 16.6625C7.71637 16.572 7.6259 16.4815 7.53542 16.3873C7.44872 16.2931 7.36202 16.1951 7.27908 16.097C7.20746 16.0103 7.13961 15.9199 7.07176 15.8294C7.06045 15.8143 7.04913 15.803 7.04159 15.7879C6.92473 15.6296 6.81164 15.4675 6.70986 15.2979C6.67593 15.2413 6.64201 15.181 6.60808 15.1245C6.54022 15.0076 6.47991 14.8907 6.41959 14.7701C6.35928 14.6495 6.30273 14.5251 6.24995 14.3969C6.15948 14.1745 6.07278 13.9483 6.00492 13.7146C5.99361 13.6807 5.98608 13.6467 5.97477 13.6128C5.93707 13.4809 5.90314 13.3414 5.87675 13.2019C5.86167 13.1303 5.84659 13.0587 5.83528 12.9908C5.82397 12.9192 5.81266 12.8513 5.80136 12.7797C5.79382 12.7382 5.79005 12.7005 5.78628 12.6591C5.77498 12.5799 5.76743 12.5007 5.75989 12.4216C5.75989 12.3801 5.75235 12.3424 5.74859 12.3009C5.74482 12.2218 5.73728 12.1426 5.73728 12.0672C5.72597 11.777 5.73728 11.4942 5.76367 11.2115C5.77121 11.1286 5.77874 11.0456 5.79382 10.9627C5.79382 10.9476 5.79759 10.9325 5.80136 10.9212C5.82397 10.7441 5.85413 10.5707 5.8956 10.3972C5.89937 10.3746 5.90691 10.3558 5.91068 10.3332C5.96346 10.107 6.02754 9.8808 6.09917 9.66215C6.11424 9.61692 6.12932 9.57168 6.14817 9.52644C6.19341 9.39827 6.24618 9.27387 6.29896 9.14947C6.35173 9.02507 6.41205 8.90067 6.47236 8.78004C6.53268 8.65941 6.60053 8.53878 6.67216 8.42192C6.74001 8.30506 6.81541 8.1882 6.89081 8.07134C7.20369 7.6152 7.57689 7.18546 8.01041 6.80849C8.11973 6.71424 8.23282 6.62754 8.34968 6.54084C8.70026 6.28073 9.08101 6.05077 9.47306 5.87737C9.63515 5.80197 9.80101 5.73789 9.97065 5.67757C10.0724 5.64365 10.1742 5.60972 10.276 5.57956C10.4117 5.53809 10.5512 5.50417 10.6944 5.47401C10.8339 5.44385 10.9772 5.42123 11.1204 5.40239C11.241 5.38354 11.3617 5.37223 11.4861 5.36092C11.4936 5.36092 11.5012 5.36092 11.5125 5.36092C11.6369 5.35338 11.7613 5.34961 11.8894 5.34961C12.0176 5.34961 12.1345 5.35338 12.2626 5.36092C12.3456 5.36469 12.4285 5.37223 12.5114 5.38354C12.6358 5.39862 12.7602 5.41369 12.8846 5.43631C12.96 5.44762 13.0317 5.4627 13.107 5.48155C13.1824 5.5004 13.2541 5.51925 13.3257 5.53809C13.4727 5.57956 13.6235 5.6248 13.7667 5.67757C14.057 5.78313 14.3284 5.91507 14.5886 6.06585C14.8449 6.21664 15.0861 6.39005 15.3123 6.5823C15.4254 6.68032 15.531 6.7821 15.6327 6.88765C15.6855 6.94043 15.7345 6.9932 15.7835 7.04975C15.8325 7.10629 15.8816 7.16284 15.9268 7.21938C15.9758 7.27593 16.021 7.33624 16.0625 7.39656C16.1944 7.5775 16.3113 7.77353 16.4206 7.97332C16.4395 8.00725 16.4546 8.04118 16.4734 8.07511C16.5073 8.14296 16.5375 8.21082 16.5714 8.28244C16.5865 8.31637 16.6016 8.35406 16.6167 8.38799C16.643 8.45962 16.6694 8.53124 16.6958 8.60286C16.7071 8.64056 16.7222 8.67449 16.7335 8.71219C16.7448 8.74988 16.7561 8.78758 16.7674 8.82528C16.8089 8.97607 16.8466 9.12685 16.8692 9.27764C16.8918 9.42843 16.9107 9.57545 16.9145 9.72624C16.9258 9.9675 16.9182 10.2012 16.8918 10.4312C16.8843 10.4839 16.8768 10.5367 16.8692 10.5895C16.8579 10.6611 16.8466 10.729 16.8278 10.7968C16.8127 10.8647 16.7938 10.9363 16.7788 11.0042C16.7486 11.1059 16.7184 11.2077 16.6807 11.3057C16.5714 11.6036 16.4282 11.8863 16.2472 12.1464C16.1266 12.3198 15.9909 12.4819 15.8401 12.6327C15.7911 12.6817 15.7383 12.7307 15.6855 12.7759C15.6101 12.8438 15.5234 12.9116 15.4367 12.9757C15.4066 12.9983 15.3764 13.0172 15.35 13.0398C15.3199 13.0587 15.2897 13.0813 15.2595 13.1001C15.1992 13.1378 15.1351 13.1755 15.0711 13.2094C15.0371 13.2283 15.0032 13.2434 14.9693 13.2585C14.909 13.2886 14.8524 13.3112 14.7883 13.3376C14.7356 13.3602 14.679 13.3791 14.6187 13.3979C14.5621 13.4168 14.5018 13.4319 14.4415 13.4507C14.3171 13.4809 14.1852 13.5073 14.0495 13.5186C14.0155 13.5186 13.9816 13.5223 13.9477 13.5261C13.812 13.5336 13.6763 13.5261 13.533 13.5073C13.3408 13.4809 13.1674 13.4243 13.0128 13.3489C12.9336 13.3112 12.862 13.2698 12.7904 13.2245C12.7188 13.1793 12.6547 13.1265 12.5906 13.0737C12.5604 13.0473 12.5303 13.0172 12.5001 12.987C12.4398 12.9267 12.387 12.8626 12.338 12.7948C12.3116 12.7608 12.289 12.7232 12.2664 12.6892C12.2438 12.6515 12.2249 12.6138 12.2023 12.5761C12.1646 12.497 12.1307 12.4178 12.1043 12.3311C12.093 12.2896 12.0817 12.2444 12.0704 12.2029C12.0515 12.1162 12.0478 12.0295 12.044 11.9391C12.044 11.8863 12.044 11.8335 12.0515 11.7845C12.0591 11.743 12.0666 11.6978 12.0742 11.6601C12.1194 11.4867 12.2023 11.3434 12.2966 11.2341C12.3946 11.1248 12.5039 11.0381 12.6245 10.9778C12.7489 10.9175 12.8809 10.8835 13.0128 10.8835C13.0279 10.8835 13.0467 10.8835 13.0618 10.8835C13.1297 10.8911 13.1938 10.9062 13.2503 10.9288C13.2805 10.9401 13.3068 10.9552 13.3295 10.9702C13.3408 10.9778 13.3558 10.9853 13.3672 10.9929L13.4199 11.0343C13.4199 11.0343 13.4426 11.0532 13.4539 11.0645C13.4652 11.0758 13.4727 11.0871 13.4765 11.1022C13.4916 11.1361 13.4991 11.1738 13.4916 11.2115C13.4916 11.219 13.4916 11.2266 13.4878 11.2303C13.0995 10.9552 12.5906 11.2303 12.5567 11.728C12.5416 11.9617 12.6471 12.1841 12.813 12.35C13.2805 12.8212 14.106 12.7985 14.7733 12.3688C15.5121 11.8486 15.8024 11.0306 15.6441 9.99012C15.5121 9.13062 15.0786 8.33145 14.3774 7.815C13.9025 7.46818 13.3106 7.21938 12.6434 7.17792C11.667 7.1176 10.6944 7.36263 9.85379 7.864C8.24036 8.83282 7.49396 10.4425 8.01418 12.9003C8.55702 15.558 10.4833 16.6022 12.9374 16.7982C14.3888 16.9151 15.8439 16.5155 16.9823 15.6107C18.3809 14.4987 19.165 12.8099 18.7428 11.0796C18.7541 11.0758 18.7616 11.072 18.7729 11.0683C18.7767 11.0683 18.7842 11.0683 18.788 11.0645C18.7993 11.0645 18.8068 11.0645 18.8182 11.0645C18.8295 11.0645 18.8408 11.0645 18.8521 11.0645C18.8822 11.0683 18.9124 11.0833 18.9312 11.1022C18.935 11.1059 18.9426 11.1135 18.9463 11.1173C18.9576 11.1286 18.9652 11.1399 18.9727 11.1512C18.9765 11.1587 18.9802 11.1625 18.984 11.17L19.0217 11.2605C19.1537 11.5772 19.2328 11.9127 19.2781 12.2632C19.3158 12.6101 19.3195 12.972 19.2781 13.3301L19.2554 13.3489Z" fill="white"/>
<path d="M11.3242 1.06408C11.5089 1.04147 11.6974 1.02639 11.8897 1.01885C12.0895 1.00377 12.2968 1 12.5004 1C18.5734 1 23.5004 5.92323 23.5004 12C23.5004 18.0768 18.5734 23 12.5004 23C12.2968 23 12.0895 22.9962 11.8897 22.9812C11.6974 22.9736 11.5089 22.9585 11.3242 22.9359C16.8431 22.3478 21.1443 17.6772 21.1443 12C21.1443 6.32282 16.8431 1.65216 11.3242 1.06408Z" stroke="#46597C" stroke-opacity="0.9" stroke-linecap="round" stroke-linejoin="round"/>
<path d="M1.5 12.0004C1.5 6.67754 5.27348 2.24437 10.2947 1.22278C10.5435 1.17377 10.7961 1.12854 11.0524 1.09461C11.1052 1.08707 11.158 1.0833 11.2108 1.07576C11.2485 1.07199 11.2862 1.06822 11.3239 1.06445C16.8427 1.65253 21.1439 6.32319 21.1439 12.0004C21.1439 17.6775 16.8427 22.3482 11.3239 22.9363C11.2862 22.9363 11.2485 22.9287 11.2108 22.925C11.158 22.9174 11.1052 22.9137 11.0524 22.9061C10.7961 22.8722 10.5435 22.827 10.2947 22.778C5.27348 21.7564 1.5 17.3232 1.5 12.0004Z" fill="#46597C" fill-opacity="0.9" stroke="#46597C" stroke-opacity="0.9" stroke-linecap="round" stroke-linejoin="round"/>
</svg>
