<svg width="25" height="24" viewBox="0 0 25 24" fill="none" xmlns="http://www.w3.org/2000/svg">
<path opacity="0.5" d="M18.9425 13.3528C18.9198 13.5338 18.8972 13.7185 18.852 13.8957C18.8331 13.9861 18.8105 14.0766 18.7841 14.1633C18.7766 14.1859 18.7728 14.2086 18.7653 14.2312C18.754 14.2726 18.7427 14.3103 18.7313 14.3518C18.7238 14.3782 18.7125 14.4046 18.705 14.431L18.6107 14.6986C18.5768 14.7891 18.5353 14.872 18.4976 14.9587C18.4826 14.9927 18.4675 15.0228 18.4524 15.0567C18.4486 15.068 18.4411 15.0794 18.4373 15.0907C18.4147 15.1321 18.3921 15.1774 18.3732 15.2188C18.3657 15.2339 18.3581 15.249 18.3506 15.2603C18.3129 15.3319 18.2752 15.4036 18.2337 15.4752C18.1847 15.5581 18.1357 15.6448 18.083 15.7277C18.0302 15.8107 17.9736 15.8898 17.9133 15.9728C17.8983 15.9916 17.8832 16.0142 17.8681 16.0331C17.8379 16.0708 17.8078 16.1123 17.7776 16.15C17.7625 16.1688 17.7475 16.1914 17.7324 16.2103C17.7022 16.2517 17.6721 16.2894 17.6381 16.3271C17.6042 16.3648 17.574 16.4025 17.5401 16.4402C17.4082 16.591 17.2649 16.738 17.1141 16.8775C16.9634 17.0132 16.805 17.1527 16.6392 17.2771C16.4733 17.4053 16.2961 17.5184 16.1189 17.6352C16.0549 17.6729 15.9945 17.7106 15.9305 17.7445C15.8551 17.786 15.7759 17.8312 15.7005 17.8689C15.6515 17.8953 15.6025 17.9179 15.5535 17.9406C15.4555 17.9896 15.3575 18.0348 15.2595 18.0763C15.1727 18.114 15.086 18.1479 14.9993 18.1818C14.9843 18.1894 14.9692 18.1931 14.9579 18.1969C14.7505 18.2685 14.5432 18.3402 14.3283 18.3967C14.2115 18.4269 14.0946 18.4532 13.9778 18.4796C13.7214 18.5324 13.4613 18.5739 13.1974 18.5965C13.1861 18.5965 13.1786 18.5965 13.1673 18.5965C13.1145 18.6003 13.0655 18.604 13.0127 18.6078C12.9034 18.6153 12.7903 18.6229 12.681 18.6229H12.3455C12.2324 18.6229 12.1268 18.6116 12.0137 18.6078C11.9044 18.6003 11.7913 18.5927 11.682 18.5776L11.354 18.5362L11.2711 18.5249L11.1995 18.5136L11.0562 18.4872L10.766 18.4306L10.6943 18.4155C10.6717 18.4118 10.6453 18.408 10.6152 18.3967L10.4305 18.3477C9.9404 18.212 9.46918 18.0197 9.02436 17.7822C8.47021 17.4807 7.95376 17.1075 7.49386 16.6664C7.40338 16.5759 7.31291 16.4855 7.22244 16.3912C7.13573 16.297 7.04903 16.199 6.9661 16.1009C6.89447 16.0142 6.82661 15.9238 6.75876 15.8333C6.74745 15.8182 6.73614 15.8069 6.72861 15.7918C6.61174 15.6335 6.49865 15.4714 6.39687 15.3018C6.36294 15.2452 6.32902 15.1849 6.29509 15.1284C6.22724 15.0115 6.16692 14.8946 6.10661 14.774C6.04629 14.6534 5.98974 14.529 5.93696 14.4008C5.84649 14.1784 5.75979 13.9522 5.69194 13.7185C5.68063 13.6846 5.67309 13.6506 5.66178 13.6167C5.62409 13.4848 5.59016 13.3453 5.56377 13.2058C5.54869 13.1342 5.5336 13.0626 5.52229 12.9947C5.51099 12.9231 5.49968 12.8552 5.48837 12.7836C5.48083 12.7421 5.47707 12.7044 5.4733 12.663C5.46199 12.5838 5.45445 12.5046 5.44691 12.4255C5.44691 12.384 5.43937 12.3463 5.4356 12.3049C5.43183 12.2257 5.42429 12.1465 5.42429 12.0711C5.41298 11.7809 5.42428 11.4981 5.45067 11.2154C5.45821 11.1325 5.46575 11.0495 5.48083 10.9666C5.48083 10.9515 5.4846 10.9365 5.48837 10.9251C5.51099 10.748 5.54114 10.5746 5.58261 10.4012C5.58638 10.3785 5.59392 10.3597 5.59769 10.3371C5.65047 10.1109 5.71455 9.8847 5.78618 9.66606C5.80126 9.62082 5.81634 9.57558 5.83519 9.53035C5.88042 9.40218 5.9332 9.27778 5.98597 9.15338C6.03875 9.02898 6.09906 8.90458 6.15938 8.78395C6.21969 8.66332 6.28755 8.54269 6.35917 8.42582C6.42702 8.30896 6.50243 8.1921 6.57782 8.07524C6.89071 7.61911 7.26391 7.18936 7.69742 6.81239C7.80674 6.71815 7.91983 6.63145 8.03669 6.54474C8.38728 6.28463 8.76802 6.05468 9.16007 5.88127C9.32217 5.80588 9.48803 5.74179 9.65766 5.68148C9.75945 5.64755 9.86123 5.61363 9.96301 5.58347C10.0987 5.542 10.2382 5.50807 10.3815 5.47792C10.5209 5.44776 10.6642 5.42514 10.8074 5.40629C10.9281 5.38744 11.0487 5.37613 11.1731 5.36482C11.1806 5.36482 11.1882 5.36482 11.1995 5.36482C11.3239 5.35728 11.4483 5.35352 11.5764 5.35352C11.7046 5.35352 11.8215 5.35728 11.9497 5.36482C12.0326 5.36859 12.1155 5.37613 12.1985 5.38744C12.3229 5.40252 12.4472 5.4176 12.5717 5.44022C12.647 5.45153 12.7187 5.46661 12.7941 5.48545C12.8695 5.5043 12.9411 5.52315 13.0127 5.542C13.1597 5.58347 13.3105 5.6287 13.4538 5.68148C13.744 5.78703 14.0154 5.91897 14.2756 6.06976C14.5319 6.22055 14.7732 6.39395 14.9993 6.58621C15.1124 6.68422 15.218 6.786 15.3198 6.89155C15.3725 6.94433 15.4215 6.99711 15.4706 7.05365C15.5196 7.1102 15.5686 7.16674 15.6138 7.22329C15.6628 7.27983 15.708 7.34015 15.7495 7.40047C15.8814 7.58141 15.9983 7.77744 16.1076 7.97723C16.1265 8.01116 16.1416 8.04508 16.1604 8.07901C16.1943 8.14687 16.2245 8.21472 16.2584 8.28635C16.2735 8.32027 16.2886 8.35797 16.3037 8.3919C16.33 8.46352 16.3564 8.53515 16.3828 8.60677C16.3941 8.64447 16.4092 8.6784 16.4205 8.71609C16.4318 8.75379 16.4431 8.79149 16.4544 8.82918C16.4959 8.97997 16.5336 9.13076 16.5562 9.28155C16.5789 9.43234 16.5977 9.57935 16.6015 9.73014C16.6128 9.9714 16.6052 10.2051 16.5788 10.4351C16.5713 10.4879 16.5638 10.5406 16.5562 10.5934C16.5449 10.665 16.5336 10.7329 16.5148 10.8007C16.4997 10.8686 16.4808 10.9402 16.4658 11.0081C16.4356 11.1099 16.4054 11.2116 16.3677 11.3096C16.2584 11.6075 16.1152 11.8902 15.9342 12.1503C15.8136 12.3237 15.6779 12.4858 15.5271 12.6366C15.4781 12.6856 15.4253 12.7346 15.3725 12.7798C15.2971 12.8477 15.2104 12.9155 15.1237 12.9796C15.0936 13.0022 15.0634 13.0211 15.037 13.0437C15.0069 13.0626 14.9767 13.0852 14.9466 13.104C14.8862 13.1417 14.8222 13.1794 14.7581 13.2134C14.7241 13.2322 14.6902 13.2473 14.6563 13.2624C14.596 13.2925 14.5394 13.3151 14.4753 13.3415C14.4226 13.3641 14.366 13.383 14.3057 13.4018C14.2492 13.4207 14.1889 13.4358 14.1285 13.4546C14.0041 13.4848 13.8722 13.5112 13.7365 13.5225C13.7026 13.5225 13.6686 13.5262 13.6347 13.53C13.499 13.5375 13.3633 13.53 13.22 13.5112C13.0278 13.4848 12.8544 13.4282 12.6998 13.3528C12.6207 13.3151 12.549 13.2737 12.4774 13.2284C12.4058 13.1832 12.3417 13.1304 12.2776 13.0776C12.2475 13.0513 12.2173 13.0211 12.1871 12.9909C12.1268 12.9306 12.074 12.8665 12.025 12.7987C11.9987 12.7648 11.976 12.7271 11.9534 12.6931C11.9308 12.6554 11.912 12.6177 11.8893 12.58C11.8516 12.5009 11.8177 12.4217 11.7913 12.335C11.78 12.2935 11.7687 12.2483 11.7574 12.2068C11.7385 12.1201 11.7348 12.0334 11.731 11.943C11.731 11.8902 11.731 11.8374 11.7385 11.7884C11.7461 11.7469 11.7536 11.7017 11.7612 11.664C11.8064 11.4906 11.8893 11.3473 11.9836 11.238C12.0816 11.1287 12.1909 11.042 12.3115 10.9817C12.4359 10.9214 12.5679 10.8874 12.6998 10.8874C12.7149 10.8874 12.7337 10.8874 12.7488 10.8874C12.8167 10.895 12.8808 10.9101 12.9373 10.9327C12.9675 10.944 12.9939 10.9591 13.0165 10.9741C13.0278 10.9817 13.0429 10.9892 13.0542 10.9968L13.107 11.0382C13.107 11.0382 13.1296 11.0571 13.1409 11.0684C13.1522 11.0797 13.1597 11.091 13.1635 11.1061C13.1786 11.14 13.1861 11.1777 13.1786 11.2154C13.1786 11.2229 13.1786 11.2305 13.1748 11.2343C12.7865 10.9591 12.2776 11.2343 12.2437 11.7319C12.2286 11.9656 12.3342 12.188 12.5 12.3539C12.9675 12.8251 13.793 12.8025 14.4603 12.3727C15.1991 11.8525 15.4894 11.0345 15.3311 9.99402C15.1991 9.13453 14.7656 8.33535 14.0645 7.8189C13.5895 7.47209 12.9976 7.22329 12.3304 7.18182C11.354 7.12151 10.3814 7.36654 9.5408 7.86791C7.92737 8.83672 7.18097 10.4464 7.70118 12.9042C8.24402 15.5619 10.1703 16.6061 12.6244 16.8021C14.0758 16.919 15.5309 16.5194 16.6693 15.6147C18.0679 14.5026 18.852 12.8138 18.4298 11.0835C18.4411 11.0797 18.4486 11.0759 18.4599 11.0722C18.4637 11.0722 18.4712 11.0722 18.475 11.0684C18.4863 11.0684 18.4939 11.0684 18.5052 11.0684C18.5165 11.0684 18.5278 11.0684 18.5391 11.0684C18.5692 11.0722 18.5994 11.0872 18.6183 11.1061C18.622 11.1099 18.6296 11.1174 18.6333 11.1212C18.6446 11.1325 18.6522 11.1438 18.6597 11.1551C18.6635 11.1626 18.6673 11.1664 18.671 11.1739L18.7087 11.2644C18.8407 11.5811 18.9198 11.9166 18.9651 12.2672C19.0028 12.614 19.0065 12.9759 18.9651 13.334L18.9425 13.3528Z" fill="#410082"/>
<path d="M23.5 12C23.5 18.0768 18.573 23 12.5 23V1C18.573 1 23.5 5.92323 23.5 12Z" fill="#410082" stroke="#410082" stroke-miterlimit="10" stroke-linejoin="round"/>
<path d="M12.5 1V23C12.2964 23 12.0891 22.9962 11.8893 22.9812C11.6066 22.9661 11.3276 22.9397 11.0524 22.9058C10.7961 22.8718 10.5435 22.8266 10.2947 22.7776C5.27347 21.756 1.5 17.3228 1.5 12C1.5 6.67718 5.27347 2.244 10.2947 1.22241C10.5435 1.17341 10.7961 1.12817 11.0524 1.09424C11.3276 1.06032 11.6066 1.03393 11.8893 1.01885C12.0891 1.00377 12.2964 1 12.5 1Z" stroke="#410082" stroke-miterlimit="10" stroke-linejoin="round"/>
</svg>
