<svg width="25" height="24" viewBox="0 0 25 24" fill="none" xmlns="http://www.w3.org/2000/svg">
<path d="M23.5 12C23.5 17.3228 19.7265 21.756 14.7053 22.7776C14.4565 22.8266 14.2039 22.8718 13.9476 22.9058C13.8948 22.9133 13.842 22.9171 13.7892 22.9246C13.7515 22.9284 13.7138 22.9321 13.6761 22.9359C13.4914 22.9585 13.3029 22.9736 13.1107 22.9812C12.9109 22.9962 12.7036 23 12.5 23C6.427 23 1.5 18.0768 1.5 12C1.5 5.92323 6.427 1 12.5 1C12.7036 1 12.9109 1.00377 13.1107 1.01885C13.3029 1.02639 13.4914 1.04147 13.6761 1.06408C13.7138 1.06408 13.7515 1.07162 13.7892 1.07539C13.842 1.08293 13.8948 1.0867 13.9476 1.09424C14.2039 1.12817 14.4565 1.17341 14.7053 1.22241C19.7265 2.244 23.5 6.67718 23.5 12Z" fill="#46597C" fill-opacity="0.9" stroke="#46597C" stroke-opacity="0.9" stroke-linecap="round" stroke-linejoin="round"/>
</svg>
