<svg width="24" height="24" viewBox="0 0 24 24" fill="none" xmlns="http://www.w3.org/2000/svg">
<g clip-path="url(#clip0_12_105806)">
<path opacity="0.5" d="M18.7515 13.3489C18.7289 13.5299 18.7063 13.7146 18.6611 13.8918C18.6422 13.9822 18.6196 14.0727 18.5932 14.1594C18.5857 14.182 18.5819 14.2046 18.5743 14.2273C18.563 14.2687 18.5517 14.3064 18.5404 14.3479C18.5329 14.3743 18.5216 14.4007 18.514 14.4271L18.4198 14.6947C18.3859 14.7852 18.3444 14.8681 18.3067 14.9548C18.2916 14.9887 18.2765 15.0189 18.2615 15.0528C18.2577 15.0641 18.2501 15.0754 18.2464 15.0868C18.2238 15.1282 18.2011 15.1735 18.1823 15.2149C18.1748 15.23 18.1672 15.2451 18.1597 15.2564C18.122 15.328 18.0843 15.3996 18.0428 15.4713C17.9938 15.5542 17.9448 15.6409 17.892 15.7238C17.8392 15.8068 17.7827 15.8859 17.7224 15.9689C17.7073 15.9877 17.6922 16.0103 17.6771 16.0292C17.647 16.0669 17.6168 16.1083 17.5867 16.146C17.5716 16.1649 17.5565 16.1875 17.5414 16.2064C17.5113 16.2478 17.4811 16.2855 17.4472 16.3232C17.4133 16.3609 17.3831 16.3986 17.3492 16.4363C17.2172 16.5871 17.074 16.7341 16.9232 16.8736C16.7724 17.0093 16.6141 17.1488 16.4482 17.2732C16.2824 17.4014 16.1052 17.5144 15.928 17.6313C15.8639 17.669 15.8036 17.7067 15.7395 17.7406C15.6641 17.7821 15.585 17.8273 15.5096 17.865C15.4606 17.8914 15.4116 17.914 15.3626 17.9367C15.2646 17.9857 15.1665 18.0309 15.0685 18.0724C14.9818 18.1101 14.8951 18.144 14.8084 18.1779C14.7933 18.1855 14.7783 18.1892 14.7669 18.193C14.5596 18.2646 14.3523 18.3362 14.1374 18.3928C14.0205 18.4229 13.9037 18.4493 13.7868 18.4757C13.5305 18.5285 13.2704 18.57 13.0065 18.5926C12.9952 18.5926 12.9876 18.5926 12.9763 18.5926C12.9236 18.5964 12.8746 18.6001 12.8218 18.6039C12.7125 18.6114 12.5994 18.619 12.4901 18.619H12.1545C12.0415 18.619 11.9359 18.6077 11.8228 18.6039C11.7135 18.5964 11.6004 18.5888 11.4911 18.5737L11.1631 18.5323L11.0802 18.521L11.0085 18.5097L10.8653 18.4833L10.575 18.4267L10.5034 18.4116C10.4808 18.4079 10.4544 18.4041 10.4242 18.3928L10.2395 18.3438C9.74947 18.2081 9.27826 18.0158 8.83344 17.7783C8.27929 17.4768 7.76284 17.1035 7.30294 16.6625C7.21246 16.572 7.12198 16.4815 7.03151 16.3873C6.9448 16.2931 6.8581 16.1951 6.77517 16.097C6.70355 16.0103 6.6357 15.9199 6.56784 15.8294C6.55653 15.8143 6.54522 15.803 6.53768 15.7879C6.42082 15.6296 6.30772 15.4675 6.20594 15.2979C6.17201 15.2413 6.1381 15.181 6.10417 15.1245C6.03632 15.0076 5.976 14.8907 5.91569 14.7701C5.85537 14.6495 5.79882 14.5251 5.74605 14.3969C5.65558 14.1745 5.56886 13.9483 5.50101 13.7146C5.4897 13.6807 5.48218 13.6467 5.47087 13.6128C5.43317 13.4809 5.39924 13.3414 5.37285 13.2019C5.35777 13.1303 5.34268 13.0587 5.33137 12.9908C5.32006 12.9192 5.30876 12.8513 5.29745 12.7797C5.28991 12.7382 5.28615 12.7005 5.28238 12.6591C5.27107 12.5799 5.26353 12.5007 5.25599 12.4216C5.25599 12.3801 5.24844 12.3424 5.24467 12.3009C5.2409 12.2218 5.23337 12.1426 5.23337 12.0672C5.22206 11.777 5.23335 11.4942 5.25974 11.2115C5.26728 11.1286 5.27483 11.0456 5.28991 10.9627C5.28991 10.9476 5.29368 10.9325 5.29745 10.9212C5.32007 10.7441 5.35023 10.5707 5.3917 10.3972C5.39546 10.3746 5.403 10.3558 5.40677 10.3332C5.45954 10.107 5.52363 9.8808 5.59525 9.66215C5.61033 9.61692 5.62541 9.57168 5.64426 9.52644C5.6895 9.39827 5.74228 9.27387 5.79506 9.14947C5.84783 9.02507 5.90813 8.90067 5.96845 8.78004C6.02876 8.65941 6.09663 8.53878 6.16825 8.42192C6.23611 8.30506 6.31151 8.1882 6.3869 8.07134C6.69979 7.6152 7.07298 7.18546 7.50649 6.80849C7.61581 6.71424 7.72891 6.62754 7.84578 6.54084C8.19636 6.28073 8.57709 6.05077 8.96914 5.87737C9.13124 5.80197 9.29711 5.73789 9.46674 5.67757C9.56852 5.64365 9.67031 5.60972 9.77209 5.57956C9.9078 5.53809 10.0473 5.50417 10.1905 5.47401C10.33 5.44385 10.4732 5.42123 10.6165 5.40239C10.7371 5.38354 10.8578 5.37223 10.9822 5.36092C10.9897 5.36092 10.9972 5.36092 11.0085 5.36092C11.1329 5.35338 11.2573 5.34961 11.3855 5.34961C11.5137 5.34961 11.6306 5.35338 11.7587 5.36092C11.8417 5.36469 11.9246 5.37223 12.0075 5.38354C12.1319 5.39862 12.2563 5.41369 12.3807 5.43631C12.4561 5.44762 12.5277 5.4627 12.6031 5.48155C12.6785 5.5004 12.7502 5.51925 12.8218 5.53809C12.9688 5.57956 13.1196 5.6248 13.2628 5.67757C13.5531 5.78313 13.8245 5.91507 14.0846 6.06585C14.341 6.21664 14.5822 6.39005 14.8084 6.5823C14.9215 6.68032 15.0271 6.7821 15.1288 6.88765C15.1816 6.94043 15.2306 6.9932 15.2796 7.04975C15.3286 7.10629 15.3776 7.16284 15.4229 7.21938C15.4719 7.27593 15.5171 7.33624 15.5586 7.39656C15.6905 7.5775 15.8074 7.77353 15.9167 7.97332C15.9355 8.00725 15.9506 8.04118 15.9695 8.07511C16.0034 8.14296 16.0336 8.21082 16.0675 8.28244C16.0826 8.31637 16.0977 8.35406 16.1127 8.38799C16.1391 8.45962 16.1655 8.53124 16.1919 8.60286C16.2032 8.64056 16.2183 8.67449 16.2296 8.71219C16.2409 8.74988 16.2522 8.78758 16.2635 8.82528C16.305 8.97607 16.3427 9.12685 16.3653 9.27764C16.3879 9.42843 16.4068 9.57545 16.4105 9.72624C16.4218 9.9675 16.4143 10.2012 16.3879 10.4312C16.3804 10.4839 16.3728 10.5367 16.3653 10.5895C16.354 10.6611 16.3427 10.729 16.3238 10.7968C16.3088 10.8647 16.2899 10.9363 16.2748 11.0042C16.2447 11.1059 16.2145 11.2077 16.1768 11.3057C16.0675 11.6036 15.9243 11.8863 15.7433 12.1464C15.6227 12.3198 15.487 12.4819 15.3362 12.6327C15.2872 12.6817 15.2344 12.7307 15.1816 12.7759C15.1062 12.8438 15.0195 12.9116 14.9328 12.9757C14.9027 12.9983 14.8725 13.0172 14.8461 13.0398C14.816 13.0587 14.7858 13.0813 14.7556 13.1001C14.6953 13.1378 14.6312 13.1755 14.5671 13.2094C14.5332 13.2283 14.4993 13.2434 14.4654 13.2585C14.4051 13.2886 14.3485 13.3112 14.2844 13.3376C14.2316 13.3602 14.1751 13.3791 14.1148 13.3979C14.0582 13.4168 13.9979 13.4319 13.9376 13.4507C13.8132 13.4809 13.6813 13.5073 13.5456 13.5186C13.5116 13.5186 13.4777 13.5223 13.4438 13.5261C13.3081 13.5336 13.1724 13.5261 13.0291 13.5073C12.8369 13.4809 12.6635 13.4243 12.5089 13.3489C12.4297 13.3112 12.3581 13.2698 12.2865 13.2245C12.2148 13.1793 12.1508 13.1265 12.0867 13.0737C12.0565 13.0473 12.0264 13.0172 11.9962 12.987C11.9359 12.9267 11.8831 12.8626 11.8341 12.7948C11.8077 12.7608 11.7851 12.7232 11.7625 12.6892C11.7399 12.6515 11.721 12.6138 11.6984 12.5761C11.6607 12.497 11.6268 12.4178 11.6004 12.3311C11.5891 12.2896 11.5778 12.2444 11.5665 12.2029C11.5476 12.1162 11.5438 12.0295 11.5401 11.9391C11.5401 11.8863 11.5401 11.8335 11.5476 11.7845C11.5552 11.743 11.5627 11.6978 11.5702 11.6601C11.6155 11.4867 11.6984 11.3434 11.7926 11.2341C11.8907 11.1248 12 11.0381 12.1206 10.9778C12.245 10.9175 12.377 10.8835 12.5089 10.8835C12.524 10.8835 12.5428 10.8835 12.5579 10.8835C12.6258 10.8911 12.6898 10.9062 12.7464 10.9288C12.7765 10.9401 12.8029 10.9552 12.8255 10.9702C12.8368 10.9778 12.8519 10.9853 12.8632 10.9929L12.916 11.0343C12.916 11.0343 12.9386 11.0532 12.9499 11.0645C12.9613 11.0758 12.9688 11.0871 12.9726 11.1022C12.9876 11.1361 12.9952 11.1738 12.9876 11.2115C12.9876 11.219 12.9877 11.2266 12.9839 11.2303C12.5956 10.9552 12.0867 11.2303 12.0528 11.728C12.0377 11.9617 12.1432 12.1841 12.3091 12.35C12.7765 12.8212 13.6021 12.7985 14.2693 12.3688C15.0082 11.8486 15.2985 11.0306 15.1401 9.99012C15.0082 9.13062 14.5747 8.33145 13.8735 7.815C13.3985 7.46818 12.8067 7.21938 12.1394 7.17792C11.1631 7.1176 10.1905 7.36263 9.34988 7.864C7.73645 8.83282 6.99005 10.4425 7.51027 12.9003C8.0531 15.558 9.97942 16.6022 12.4335 16.7982C13.8848 16.9151 15.3399 16.5155 16.4784 15.6107C17.8769 14.4987 18.6611 12.8099 18.2388 11.0796C18.2502 11.0758 18.2577 11.072 18.269 11.0683C18.2728 11.0683 18.2803 11.0683 18.2841 11.0645C18.2954 11.0645 18.3029 11.0645 18.3142 11.0645C18.3255 11.0645 18.3369 11.0645 18.3482 11.0645C18.3783 11.0683 18.4085 11.0833 18.4273 11.1022C18.4311 11.1059 18.4386 11.1135 18.4424 11.1173C18.4537 11.1286 18.4613 11.1399 18.4688 11.1512C18.4726 11.1587 18.4763 11.1625 18.4801 11.17L18.5178 11.2605C18.6497 11.5772 18.7289 11.9127 18.7741 12.2632C18.8118 12.6101 18.8156 12.972 18.7741 13.3301L18.7515 13.3489Z" fill="#46597C" fill-opacity="0.9"/>
<path d="M13.0216 22.951C12.8859 22.9623 12.7502 22.9736 12.6107 22.9812C12.4109 22.9962 12.2036 23 12 23C5.927 23 1 18.0768 1 12C1 5.92323 5.927 1 12 1C12.2036 1 12.4109 1.00377 12.6107 1.01885C12.7502 1.02639 12.8859 1.0377 13.0216 1.04901C8.32831 2.47395 4.90918 6.8355 4.90918 12C4.90918 17.1645 8.32831 21.526 13.0216 22.951Z" fill="#46597C" fill-opacity="0.9" stroke="#46597C" stroke-opacity="0.9" stroke-linecap="round" stroke-linejoin="round"/>
<path d="M23 11.9998C23 17.3226 19.2265 21.7558 14.2053 22.7774C13.817 22.8566 13.4249 22.9131 13.0216 22.9508C8.32831 21.5259 4.90918 17.1643 4.90918 11.9998C4.90918 6.83533 8.32831 2.47378 13.0216 1.04883C13.4249 1.08653 13.817 1.14307 14.2053 1.22223C19.2265 2.24382 23 6.677 23 11.9998Z" stroke="#46597C" stroke-opacity="0.9" stroke-linecap="round" stroke-linejoin="round"/>
</g>
<defs>
<clipPath id="clip0_12_105806">
<rect width="24" height="24" rx="12" fill="white"/>
</clipPath>
</defs>
</svg>
