<svg width="25" height="24" viewBox="0 0 25 24" fill="none" xmlns="http://www.w3.org/2000/svg">
<path opacity="0.5" d="M19.251 13.3489C19.2284 13.5299 19.2058 13.7146 19.1606 13.8918C19.1417 13.9822 19.1191 14.0727 19.0927 14.1594C19.0852 14.182 19.0814 14.2046 19.0738 14.2273C19.0625 14.2687 19.0512 14.3064 19.0399 14.3479C19.0324 14.3743 19.0211 14.4007 19.0135 14.4271L18.9193 14.6947C18.8854 14.7852 18.8439 14.8681 18.8062 14.9548C18.7911 14.9887 18.7761 15.0189 18.761 15.0528C18.7572 15.0641 18.7496 15.0754 18.7459 15.0868C18.7233 15.1282 18.7006 15.1735 18.6818 15.2149C18.6743 15.23 18.6667 15.2451 18.6592 15.2564C18.6215 15.328 18.5838 15.3996 18.5423 15.4713C18.4933 15.5542 18.4443 15.6409 18.3915 15.7238C18.3388 15.8068 18.2822 15.8859 18.2219 15.9689C18.2068 15.9877 18.1917 16.0103 18.1767 16.0292C18.1465 16.0669 18.1163 16.1083 18.0862 16.146C18.0711 16.1649 18.056 16.1875 18.0409 16.2064C18.0108 16.2478 17.9806 16.2855 17.9467 16.3232C17.9128 16.3609 17.8826 16.3986 17.8487 16.4363C17.7167 16.5871 17.5735 16.7341 17.4227 16.8736C17.2719 17.0093 17.1136 17.1488 16.9477 17.2732C16.7819 17.4014 16.6047 17.5144 16.4275 17.6313C16.3634 17.669 16.3031 17.7067 16.239 17.7406C16.1636 17.7821 16.0845 17.8273 16.0091 17.865C15.9601 17.8914 15.9111 17.914 15.8621 17.9367C15.7641 17.9857 15.666 18.0309 15.568 18.0724C15.4813 18.1101 15.3946 18.144 15.3079 18.1779C15.2928 18.1855 15.2778 18.1892 15.2665 18.193C15.0591 18.2646 14.8518 18.3362 14.6369 18.3928C14.5201 18.4229 14.4032 18.4493 14.2863 18.4757C14.03 18.5285 13.7699 18.57 13.506 18.5926C13.4947 18.5926 13.4872 18.5926 13.4758 18.5926C13.4231 18.5964 13.3741 18.6001 13.3213 18.6039C13.212 18.6114 13.0989 18.619 12.9896 18.619H12.6541C12.541 18.619 12.4354 18.6077 12.3223 18.6039C12.213 18.5964 12.0999 18.5888 11.9906 18.5737L11.6626 18.5323L11.5797 18.521L11.5081 18.5097L11.3648 18.4833L11.0745 18.4267L11.0029 18.4116C10.9803 18.4079 10.9539 18.4041 10.9237 18.3928L10.739 18.3438C10.249 18.2081 9.77777 18.0158 9.33294 17.7783C8.7788 17.4768 8.26235 17.1035 7.80244 16.6625C7.71197 16.572 7.62149 16.4815 7.53101 16.3873C7.44431 16.2931 7.35761 16.1951 7.27468 16.097C7.20305 16.0103 7.1352 15.9199 7.06735 15.8294C7.05604 15.8143 7.04472 15.803 7.03718 15.7879C6.92032 15.6296 6.80723 15.4675 6.70545 15.2979C6.67152 15.2413 6.63761 15.181 6.60368 15.1245C6.53583 15.0076 6.47551 14.8907 6.4152 14.7701C6.35488 14.6495 6.29833 14.5251 6.24556 14.3969C6.15508 14.1745 6.06837 13.9483 6.00052 13.7146C5.98921 13.6807 5.98168 13.6467 5.97038 13.6128C5.93268 13.4809 5.89875 13.3414 5.87236 13.2019C5.85728 13.1303 5.84218 13.0587 5.83087 12.9908C5.81957 12.9192 5.80827 12.8513 5.79696 12.7797C5.78942 12.7382 5.78566 12.7005 5.78189 12.6591C5.77058 12.5799 5.76304 12.5007 5.7555 12.4216C5.7555 12.3801 5.74795 12.3424 5.74418 12.3009C5.74041 12.2218 5.73288 12.1426 5.73288 12.0672C5.72157 11.777 5.73288 11.4942 5.75927 11.2115C5.76681 11.1286 5.77433 11.0456 5.78941 10.9627C5.78941 10.9476 5.79319 10.9325 5.79696 10.9212C5.81958 10.7441 5.84974 10.5707 5.8912 10.3972C5.89497 10.3746 5.9025 10.3558 5.90627 10.3332C5.95905 10.107 6.02313 9.8808 6.09476 9.66215C6.10984 9.61692 6.12492 9.57168 6.14377 9.52644C6.189 9.39827 6.24179 9.27387 6.29456 9.14947C6.34734 9.02507 6.40764 8.90067 6.46796 8.78004C6.52827 8.65941 6.59614 8.53878 6.66776 8.42192C6.73562 8.30506 6.81102 8.1882 6.88641 8.07134C7.1993 7.6152 7.57248 7.18546 8.006 6.80849C8.11532 6.71424 8.22842 6.62754 8.34528 6.54084C8.69587 6.28073 9.0766 6.05077 9.46865 5.87737C9.63074 5.80197 9.79661 5.73789 9.96625 5.67757C10.068 5.64365 10.1698 5.60972 10.2716 5.57956C10.4073 5.53809 10.5468 5.50417 10.69 5.47401C10.8295 5.44385 10.9728 5.42123 11.116 5.40239C11.2366 5.38354 11.3573 5.37223 11.4817 5.36092C11.4892 5.36092 11.4968 5.36092 11.5081 5.36092C11.6325 5.35338 11.7569 5.34961 11.885 5.34961C12.0132 5.34961 12.1301 5.35338 12.2582 5.36092C12.3412 5.36469 12.4241 5.37223 12.507 5.38354C12.6314 5.39862 12.7558 5.41369 12.8802 5.43631C12.9556 5.44762 13.0273 5.4627 13.1026 5.48155C13.178 5.5004 13.2497 5.51925 13.3213 5.53809C13.4683 5.57956 13.6191 5.6248 13.7623 5.67757C14.0526 5.78313 14.324 5.91507 14.5841 6.06585C14.8405 6.21664 15.0817 6.39005 15.3079 6.5823C15.421 6.68032 15.5266 6.7821 15.6284 6.88765C15.6811 6.94043 15.7301 6.9932 15.7791 7.04975C15.8281 7.10629 15.8771 7.16284 15.9224 7.21938C15.9714 7.27593 16.0166 7.33624 16.0581 7.39656C16.19 7.5775 16.3069 7.77353 16.4162 7.97332C16.4351 8.00725 16.4501 8.04118 16.469 8.07511C16.5029 8.14296 16.5331 8.21082 16.567 8.28244C16.5821 8.31637 16.5972 8.35406 16.6122 8.38799C16.6386 8.45962 16.665 8.53124 16.6914 8.60286C16.7027 8.64056 16.7178 8.67449 16.7291 8.71219C16.7404 8.74988 16.7517 8.78758 16.763 8.82528C16.8045 8.97607 16.8422 9.12685 16.8648 9.27764C16.8874 9.42843 16.9063 9.57545 16.91 9.72624C16.9213 9.9675 16.9138 10.2012 16.8874 10.4312C16.8799 10.4839 16.8723 10.5367 16.8648 10.5895C16.8535 10.6611 16.8422 10.729 16.8233 10.7968C16.8083 10.8647 16.7894 10.9363 16.7743 11.0042C16.7442 11.1059 16.714 11.2077 16.6763 11.3057C16.567 11.6036 16.4238 11.8863 16.2428 12.1464C16.1222 12.3198 15.9865 12.4819 15.8357 12.6327C15.7867 12.6817 15.7339 12.7307 15.6811 12.7759C15.6057 12.8438 15.519 12.9116 15.4323 12.9757C15.4022 12.9983 15.372 13.0172 15.3456 13.0398C15.3155 13.0587 15.2853 13.0813 15.2551 13.1001C15.1948 13.1378 15.1307 13.1755 15.0666 13.2094C15.0327 13.2283 14.9988 13.2434 14.9649 13.2585C14.9046 13.2886 14.848 13.3112 14.7839 13.3376C14.7311 13.3602 14.6746 13.3791 14.6143 13.3979C14.5578 13.4168 14.4974 13.4319 14.4371 13.4507C14.3127 13.4809 14.1808 13.5073 14.0451 13.5186C14.0111 13.5186 13.9772 13.5223 13.9433 13.5261C13.8076 13.5336 13.6719 13.5261 13.5286 13.5073C13.3364 13.4809 13.163 13.4243 13.0084 13.3489C12.9292 13.3112 12.8576 13.2698 12.786 13.2245C12.7144 13.1793 12.6503 13.1265 12.5862 13.0737C12.556 13.0473 12.5259 13.0172 12.4957 12.987C12.4354 12.9267 12.3826 12.8626 12.3336 12.7948C12.3072 12.7608 12.2846 12.7232 12.262 12.6892C12.2394 12.6515 12.2205 12.6138 12.1979 12.5761C12.1602 12.497 12.1263 12.4178 12.0999 12.3311C12.0886 12.2896 12.0773 12.2444 12.066 12.2029C12.0471 12.1162 12.0434 12.0295 12.0396 11.9391C12.0396 11.8863 12.0396 11.8335 12.0471 11.7845C12.0547 11.743 12.0622 11.6978 12.0698 11.6601C12.115 11.4867 12.1979 11.3434 12.2922 11.2341C12.3902 11.1248 12.4995 11.0381 12.6201 10.9778C12.7445 10.9175 12.8765 10.8835 13.0084 10.8835C13.0235 10.8835 13.0423 10.8835 13.0574 10.8835C13.1253 10.8911 13.1894 10.9062 13.2459 10.9288C13.2761 10.9401 13.3024 10.9552 13.325 10.9702C13.3364 10.9778 13.3514 10.9853 13.3628 10.9929L13.4155 11.0343C13.4155 11.0343 13.4381 11.0532 13.4495 11.0645C13.4608 11.0758 13.4683 11.0871 13.4721 11.1022C13.4871 11.1361 13.4947 11.1738 13.4872 11.2115C13.4872 11.219 13.4872 11.2266 13.4834 11.2303C13.0951 10.9552 12.5862 11.2303 12.5523 11.728C12.5372 11.9617 12.6427 12.1841 12.8086 12.35C13.276 12.8212 14.1016 12.7985 14.7688 12.3688C15.5077 11.8486 15.798 11.0306 15.6396 9.99012C15.5077 9.13062 15.0742 8.33145 14.373 7.815C13.8981 7.46818 13.3062 7.21938 12.639 7.17792C11.6626 7.1176 10.69 7.36263 9.84939 7.864C8.23596 8.83282 7.48956 10.4425 8.00977 12.9003C8.55261 15.558 10.4789 16.6022 12.933 16.7982C14.3843 16.9151 15.8394 16.5155 16.9779 15.6107C18.3764 14.4987 19.1606 12.8099 18.7384 11.0796C18.7497 11.0758 18.7572 11.072 18.7685 11.0683C18.7723 11.0683 18.7798 11.0683 18.7836 11.0645C18.7949 11.0645 18.8024 11.0645 18.8137 11.0645C18.825 11.0645 18.8364 11.0645 18.8477 11.0645C18.8778 11.0683 18.908 11.0833 18.9268 11.1022C18.9306 11.1059 18.9381 11.1135 18.9419 11.1173C18.9532 11.1286 18.9608 11.1399 18.9683 11.1512C18.9721 11.1587 18.9758 11.1625 18.9796 11.17L19.0173 11.2605C19.1492 11.5772 19.2284 11.9127 19.2736 12.2632C19.3113 12.6101 19.3151 12.972 19.2736 13.3301L19.251 13.3489Z" fill="#46597C" fill-opacity="0.9"/>
<path d="M11.2109 1.07539C11.4333 1.04901 11.6595 1.03016 11.8895 1.01885C12.0893 1.00377 12.2966 1 12.5002 1C18.5732 1 23.5002 5.92323 23.5002 12C23.5002 18.0768 18.5732 23 12.5002 23C12.2966 23 12.0893 22.9962 11.8895 22.9812C11.6595 22.9698 11.4333 22.951 11.2109 22.9246C14.3888 20.3461 16.4207 16.4106 16.4207 12C16.4207 7.58945 14.3888 3.65387 11.2109 1.07539Z" stroke="#46597C" stroke-opacity="0.9" stroke-miterlimit="10" stroke-linejoin="round"/>
<path d="M1.5 12.0008C1.5 6.67795 5.27348 2.24478 10.2947 1.22319C10.5435 1.17418 10.7961 1.12895 11.0524 1.09502C11.1052 1.08748 11.158 1.08371 11.2108 1.07617C14.3886 3.65465 16.4205 7.59022 16.4205 12.0008C16.4205 16.4113 14.3886 20.3469 11.2108 22.9254C11.158 22.9178 11.1052 22.9141 11.0524 22.9065C10.7961 22.8726 10.5435 22.8274 10.2947 22.7784C5.27348 21.7568 1.5 17.3236 1.5 12.0008Z" fill="#46597C" fill-opacity="0.9" stroke="#46597C" stroke-opacity="0.9" stroke-miterlimit="10" stroke-linejoin="round"/>
</svg>
