<svg width="25" height="24" viewBox="0 0 25 24" fill="none" xmlns="http://www.w3.org/2000/svg">
<path opacity="0.5" d="M19.2515 13.3489C19.2289 13.5299 19.2063 13.7146 19.1611 13.8918C19.1422 13.9822 19.1196 14.0727 19.0932 14.1594C19.0857 14.182 19.0819 14.2046 19.0744 14.2273C19.0631 14.2687 19.0517 14.3064 19.0404 14.3479C19.0329 14.3743 19.0216 14.4007 19.014 14.4271L18.9198 14.6947C18.8859 14.7852 18.8444 14.8681 18.8067 14.9548C18.7916 14.9887 18.7766 15.0189 18.7615 15.0528C18.7577 15.0641 18.7502 15.0754 18.7464 15.0868C18.7238 15.1282 18.7012 15.1735 18.6823 15.2149C18.6748 15.23 18.6672 15.2451 18.6597 15.2564C18.622 15.328 18.5843 15.3996 18.5428 15.4713C18.4938 15.5542 18.4448 15.6409 18.3921 15.7238C18.3393 15.8068 18.2827 15.8859 18.2224 15.9689C18.2073 15.9877 18.1923 16.0103 18.1772 16.0292C18.147 16.0669 18.1169 16.1083 18.0867 16.146C18.0716 16.1649 18.0565 16.1875 18.0415 16.2064C18.0113 16.2478 17.9812 16.2855 17.9472 16.3232C17.9133 16.3609 17.8831 16.3986 17.8492 16.4363C17.7173 16.5871 17.574 16.7341 17.4232 16.8736C17.2724 17.0093 17.1141 17.1488 16.9482 17.2732C16.7824 17.4014 16.6052 17.5144 16.428 17.6313C16.364 17.669 16.3036 17.7067 16.2396 17.7406C16.1642 17.7821 16.085 17.8273 16.0096 17.865C15.9606 17.8914 15.9116 17.914 15.8626 17.9367C15.7646 17.9857 15.6665 18.0309 15.5685 18.0724C15.4818 18.1101 15.3951 18.144 15.3084 18.1779C15.2934 18.1855 15.2783 18.1892 15.267 18.193C15.0596 18.2646 14.8523 18.3362 14.6374 18.3928C14.5206 18.4229 14.4037 18.4493 14.2868 18.4757C14.0305 18.5285 13.7704 18.57 13.5065 18.5926C13.4952 18.5926 13.4877 18.5926 13.4764 18.5926C13.4236 18.5964 13.3746 18.6001 13.3218 18.6039C13.2125 18.6114 13.0994 18.619 12.9901 18.619H12.6546C12.5415 18.619 12.4359 18.6077 12.3228 18.6039C12.2135 18.5964 12.1004 18.5888 11.9911 18.5737L11.6631 18.5323L11.5802 18.521L11.5086 18.5097L11.3653 18.4833L11.075 18.4267L11.0034 18.4116C10.9808 18.4079 10.9544 18.4041 10.9243 18.3928L10.7395 18.3438C10.2495 18.2081 9.77827 18.0158 9.33345 17.7783C8.7793 17.4768 8.26285 17.1035 7.80295 16.6625C7.71247 16.572 7.622 16.4815 7.53153 16.3873C7.44482 16.2931 7.35811 16.1951 7.27518 16.097C7.20355 16.0103 7.1357 15.9199 7.06785 15.8294C7.05654 15.8143 7.04524 15.803 7.0377 15.7879C6.92084 15.6296 6.80774 15.4675 6.70596 15.2979C6.67203 15.2413 6.6381 15.181 6.60417 15.1245C6.53632 15.0076 6.476 14.8907 6.41569 14.7701C6.35537 14.6495 6.29883 14.5251 6.24606 14.3969C6.15558 14.1745 6.06888 13.9483 6.00103 13.7146C5.98972 13.6807 5.98217 13.6467 5.97086 13.6128C5.93317 13.4809 5.89925 13.3414 5.87286 13.2019C5.85778 13.1303 5.8427 13.0587 5.83139 12.9908C5.82008 12.9192 5.80877 12.8513 5.79746 12.7797C5.78992 12.7382 5.78615 12.7005 5.78238 12.6591C5.77107 12.5799 5.76353 12.5007 5.75599 12.4216C5.75599 12.3801 5.74845 12.3424 5.74468 12.3009C5.74091 12.2218 5.73337 12.1426 5.73337 12.0672C5.72206 11.777 5.73337 11.4942 5.75976 11.2115C5.7673 11.1286 5.77485 11.0456 5.78993 10.9627C5.78993 10.9476 5.79369 10.9325 5.79746 10.9212C5.82008 10.7441 5.85024 10.5707 5.8917 10.3972C5.89547 10.3746 5.90302 10.3558 5.90678 10.3332C5.95956 10.107 6.02365 9.8808 6.09527 9.66215C6.11035 9.61692 6.12542 9.57168 6.14427 9.52644C6.1895 9.39827 6.24229 9.27387 6.29506 9.14947C6.34784 9.02507 6.40815 8.90067 6.46847 8.78004C6.52878 8.65941 6.59664 8.53878 6.66826 8.42192C6.73612 8.30506 6.81151 8.1882 6.8869 8.07134C7.19979 7.6152 7.57299 7.18546 8.0065 6.80849C8.11582 6.71424 8.22892 6.62754 8.34579 6.54084C8.69637 6.28073 9.0771 6.05077 9.46915 5.87737C9.63125 5.80197 9.79712 5.73789 9.96675 5.67757C10.0685 5.64365 10.1703 5.60972 10.2721 5.57956C10.4078 5.53809 10.5473 5.50417 10.6905 5.47401C10.83 5.44385 10.9733 5.42123 11.1165 5.40239C11.2371 5.38354 11.3578 5.37223 11.4822 5.36092C11.4897 5.36092 11.4973 5.36092 11.5086 5.36092C11.633 5.35338 11.7574 5.34961 11.8855 5.34961C12.0137 5.34961 12.1306 5.35338 12.2587 5.36092C12.3417 5.36469 12.4246 5.37223 12.5075 5.38354C12.6319 5.39862 12.7563 5.41369 12.8807 5.43631C12.9561 5.44762 13.0278 5.4627 13.1032 5.48155C13.1785 5.5004 13.2502 5.51925 13.3218 5.53809C13.4688 5.57956 13.6196 5.6248 13.7629 5.67757C14.0531 5.78313 14.3245 5.91507 14.5846 6.06585C14.841 6.21664 15.0823 6.39005 15.3084 6.5823C15.4215 6.68032 15.5271 6.7821 15.6288 6.88765C15.6816 6.94043 15.7306 6.9932 15.7796 7.04975C15.8287 7.10629 15.8777 7.16284 15.9229 7.21938C15.9719 7.27593 16.0171 7.33624 16.0586 7.39656C16.1905 7.5775 16.3074 7.77353 16.4167 7.97332C16.4356 8.00725 16.4507 8.04118 16.4695 8.07511C16.5034 8.14296 16.5336 8.21082 16.5675 8.28244C16.5826 8.31637 16.5977 8.35406 16.6127 8.38799C16.6391 8.45962 16.6655 8.53124 16.6919 8.60286C16.7032 8.64056 16.7183 8.67449 16.7296 8.71219C16.7409 8.74988 16.7522 8.78758 16.7635 8.82528C16.805 8.97607 16.8427 9.12685 16.8653 9.27764C16.8879 9.42843 16.9068 9.57545 16.9106 9.72624C16.9219 9.9675 16.9143 10.2012 16.8879 10.4312C16.8804 10.4839 16.8729 10.5367 16.8653 10.5895C16.854 10.6611 16.8427 10.729 16.8239 10.7968C16.8088 10.8647 16.7899 10.9363 16.7748 11.0042C16.7447 11.1059 16.7145 11.2077 16.6768 11.3057C16.5675 11.6036 16.4243 11.8863 16.2433 12.1464C16.1227 12.3198 15.987 12.4819 15.8362 12.6327C15.7872 12.6817 15.7344 12.7307 15.6816 12.7759C15.6062 12.8438 15.5195 12.9116 15.4328 12.9757C15.4027 12.9983 15.3725 13.0172 15.3461 13.0398C15.316 13.0587 15.2858 13.0813 15.2557 13.1001C15.1953 13.1378 15.1313 13.1755 15.0672 13.2094C15.0332 13.2283 14.9993 13.2434 14.9654 13.2585C14.9051 13.2886 14.8485 13.3112 14.7844 13.3376C14.7317 13.3602 14.6751 13.3791 14.6148 13.3979C14.5583 13.4168 14.4979 13.4319 14.4376 13.4507C14.3132 13.4809 14.1813 13.5073 14.0456 13.5186C14.0117 13.5186 13.9777 13.5223 13.9438 13.5261C13.8081 13.5336 13.6724 13.5261 13.5291 13.5073C13.3369 13.4809 13.1635 13.4243 13.0089 13.3489C12.9297 13.3112 12.8581 13.2698 12.7865 13.2245C12.7149 13.1793 12.6508 13.1265 12.5867 13.0737C12.5565 13.0473 12.5264 13.0172 12.4962 12.987C12.4359 12.9267 12.3831 12.8626 12.3341 12.7948C12.3077 12.7608 12.2851 12.7232 12.2625 12.6892C12.2399 12.6515 12.221 12.6138 12.1984 12.5761C12.1607 12.497 12.1268 12.4178 12.1004 12.3311C12.0891 12.2896 12.0778 12.2444 12.0665 12.2029C12.0476 12.1162 12.0439 12.0295 12.0401 11.9391C12.0401 11.8863 12.0401 11.8335 12.0476 11.7845C12.0552 11.743 12.0627 11.6978 12.0702 11.6601C12.1155 11.4867 12.1984 11.3434 12.2927 11.2341C12.3907 11.1248 12.5 11.0381 12.6206 10.9778C12.745 10.9175 12.877 10.8835 13.0089 10.8835C13.024 10.8835 13.0428 10.8835 13.0579 10.8835C13.1258 10.8911 13.1899 10.9062 13.2464 10.9288C13.2766 10.9401 13.3029 10.9552 13.3256 10.9702C13.3369 10.9778 13.352 10.9853 13.3633 10.9929L13.416 11.0343C13.416 11.0343 13.4387 11.0532 13.45 11.0645C13.4613 11.0758 13.4688 11.0871 13.4726 11.1022C13.4877 11.1361 13.4952 11.1738 13.4877 11.2115C13.4877 11.219 13.4877 11.2266 13.4839 11.2303C13.0956 10.9552 12.5867 11.2303 12.5528 11.728C12.5377 11.9617 12.6432 12.1841 12.8091 12.35C13.2766 12.8212 14.1021 12.7985 14.7694 12.3688C15.5082 11.8486 15.7985 11.0306 15.6402 9.99012C15.5082 9.13062 15.0747 8.33145 14.3735 7.815C13.8986 7.46818 13.3067 7.21938 12.6395 7.17792C11.6631 7.1176 10.6905 7.36263 9.84989 7.864C8.23646 8.83282 7.49006 10.4425 8.01028 12.9003C8.55311 15.558 10.4794 16.6022 12.9335 16.7982C14.3848 16.9151 15.84 16.5155 16.9784 15.6107C18.377 14.4987 19.1611 12.8099 18.7389 11.0796C18.7502 11.0758 18.7577 11.072 18.769 11.0683C18.7728 11.0683 18.7803 11.0683 18.7841 11.0645C18.7954 11.0645 18.8029 11.0645 18.8143 11.0645C18.8256 11.0645 18.8369 11.0645 18.8482 11.0645C18.8783 11.0683 18.9085 11.0833 18.9273 11.1022C18.9311 11.1059 18.9387 11.1135 18.9424 11.1173C18.9537 11.1286 18.9613 11.1399 18.9688 11.1512C18.9726 11.1587 18.9764 11.1625 18.9801 11.17L19.0178 11.2605C19.1498 11.5772 19.2289 11.9127 19.2742 12.2632C19.3119 12.6101 19.3156 12.972 19.2742 13.3301L19.2515 13.3489Z" fill="#46597C" fill-opacity="0.9"/>
<path d="M13.7892 22.9246C13.5668 22.951 13.3406 22.9698 13.1107 22.9812C12.9109 22.9962 12.7036 23 12.5 23C6.427 23 1.5 18.0768 1.5 12C1.5 5.92323 6.427 1 12.5 1C12.7036 1 12.9109 1.00377 13.1107 1.01885C13.3406 1.03016 13.5668 1.04901 13.7892 1.07539C10.6114 3.65387 8.57951 7.58945 8.57951 12C8.57951 16.4106 10.6114 20.3461 13.7892 22.9246Z" stroke="#46597C" stroke-opacity="0.9" stroke-miterlimit="10" stroke-linejoin="round"/>
<path d="M23.5001 12.0008C23.5001 17.3236 19.7266 21.7568 14.7054 22.7784C14.4566 22.8274 14.204 22.8726 13.9476 22.9065C13.8949 22.9141 13.8421 22.9178 13.7893 22.9254C10.6115 20.3469 8.57959 16.4113 8.57959 12.0008C8.57959 7.59022 10.6115 3.65465 13.7893 1.07617C13.8421 1.08371 13.8949 1.08748 13.9476 1.09502C14.204 1.12895 14.4566 1.17418 14.7054 1.22319C19.7266 2.24478 23.5001 6.67795 23.5001 12.0008Z" fill="#46597C" fill-opacity="0.9" stroke="#46597C" stroke-opacity="0.9" stroke-miterlimit="10" stroke-linejoin="round"/>
</svg>
