<svg width="24" height="24" viewBox="0 0 24 24" fill="none" xmlns="http://www.w3.org/2000/svg">
<g clip-path="url(#clip0_12_105811)">
<g opacity="0.5">
<path opacity="0.5" d="M18.751 13.3489C18.7284 13.5299 18.7058 13.7146 18.6606 13.8918C18.6417 13.9822 18.6191 14.0727 18.5927 14.1594C18.5852 14.182 18.5814 14.2046 18.5738 14.2273C18.5625 14.2687 18.5512 14.3064 18.5399 14.3479C18.5324 14.3743 18.5211 14.4007 18.5135 14.4271L18.4193 14.6947C18.3854 14.7852 18.3439 14.8681 18.3062 14.9548C18.2911 14.9887 18.2761 15.0189 18.261 15.0528C18.2572 15.0641 18.2496 15.0754 18.2459 15.0868C18.2233 15.1282 18.2006 15.1735 18.1818 15.2149C18.1743 15.23 18.1667 15.2451 18.1592 15.2564C18.1215 15.328 18.0838 15.3996 18.0423 15.4713C17.9933 15.5542 17.9443 15.6409 17.8915 15.7238C17.8388 15.8068 17.7822 15.8859 17.7219 15.9689C17.7068 15.9877 17.6918 16.0103 17.6767 16.0292C17.6465 16.0669 17.6163 16.1083 17.5862 16.146C17.5711 16.1649 17.556 16.1875 17.5409 16.2064C17.5108 16.2478 17.4806 16.2855 17.4467 16.3232C17.4128 16.3609 17.3826 16.3986 17.3487 16.4363C17.2167 16.5871 17.0735 16.7341 16.9227 16.8736C16.7719 17.0093 16.6136 17.1488 16.4477 17.2732C16.2819 17.4014 16.1047 17.5144 15.9275 17.6313C15.8634 17.669 15.8031 17.7067 15.739 17.7406C15.6636 17.7821 15.5845 17.8273 15.5091 17.865C15.4601 17.8914 15.4111 17.914 15.3621 17.9367C15.2641 17.9857 15.166 18.0309 15.068 18.0724C14.9813 18.1101 14.8946 18.144 14.8079 18.1779C14.7928 18.1855 14.7778 18.1892 14.7665 18.193C14.5591 18.2646 14.3518 18.3362 14.1369 18.3928C14.0201 18.4229 13.9032 18.4493 13.7863 18.4757C13.53 18.5285 13.2699 18.57 13.006 18.5926C12.9947 18.5926 12.9872 18.5926 12.9758 18.5926C12.9231 18.5964 12.8741 18.6001 12.8213 18.6039C12.712 18.6114 12.5989 18.619 12.4896 18.619H12.1541C12.041 18.619 11.9354 18.6077 11.8223 18.6039C11.713 18.5964 11.5999 18.5888 11.4906 18.5737L11.1626 18.5323L11.0797 18.521L11.0081 18.5097L10.8648 18.4833L10.5745 18.4267L10.5029 18.4116C10.4803 18.4079 10.4539 18.4041 10.4237 18.3928L10.239 18.3438C9.74897 18.2081 9.27777 18.0158 8.83294 17.7783C8.2788 17.4768 7.76235 17.1035 7.30244 16.6625C7.21197 16.572 7.12149 16.4815 7.03101 16.3873C6.94431 16.2931 6.85761 16.1951 6.77468 16.097C6.70305 16.0103 6.6352 15.9199 6.56735 15.8294C6.55604 15.8143 6.54472 15.803 6.53718 15.7879C6.42032 15.6296 6.30723 15.4675 6.20545 15.2979C6.17152 15.2413 6.13761 15.181 6.10368 15.1245C6.03583 15.0076 5.97551 14.8907 5.9152 14.7701C5.85488 14.6495 5.79833 14.5251 5.74556 14.3969C5.65508 14.1745 5.56837 13.9483 5.50052 13.7146C5.48921 13.6807 5.48168 13.6467 5.47038 13.6128C5.43268 13.4809 5.39875 13.3414 5.37236 13.2019C5.35728 13.1303 5.34221 13.0587 5.3309 12.9908C5.31959 12.9192 5.30827 12.8513 5.29696 12.7797C5.28942 12.7382 5.28566 12.7005 5.28189 12.6591C5.27058 12.5799 5.26304 12.5007 5.2555 12.4216C5.2555 12.3801 5.24795 12.3424 5.24418 12.3009C5.24041 12.2218 5.23288 12.1426 5.23288 12.0672C5.22157 11.777 5.23288 11.4942 5.25927 11.2115C5.26681 11.1286 5.27433 11.0456 5.28941 10.9627C5.28941 10.9476 5.29319 10.9325 5.29696 10.9212C5.31958 10.7441 5.34974 10.5707 5.3912 10.3972C5.39497 10.3746 5.4025 10.3558 5.40627 10.3332C5.45905 10.107 5.52313 9.8808 5.59476 9.66215C5.60984 9.61692 5.62492 9.57168 5.64377 9.52644C5.689 9.39827 5.74179 9.27387 5.79456 9.14947C5.84734 9.02507 5.90764 8.90067 5.96796 8.78004C6.02827 8.65941 6.09614 8.53878 6.16776 8.42192C6.23562 8.30506 6.31102 8.1882 6.38641 8.07134C6.6993 7.6152 7.07248 7.18546 7.506 6.80849C7.61532 6.71424 7.72842 6.62754 7.84528 6.54084C8.19587 6.28073 8.5766 6.05077 8.96865 5.87737C9.13074 5.80197 9.29661 5.73789 9.46625 5.67757C9.56803 5.64365 9.66981 5.60972 9.7716 5.57956C9.9073 5.53809 10.0468 5.50417 10.19 5.47401C10.3295 5.44385 10.4728 5.42123 10.616 5.40239C10.7366 5.38354 10.8573 5.37223 10.9817 5.36092C10.9892 5.36092 10.9968 5.36092 11.0081 5.36092C11.1325 5.35338 11.2569 5.34961 11.385 5.34961C11.5132 5.34961 11.6301 5.35338 11.7582 5.36092C11.8412 5.36469 11.9241 5.37223 12.007 5.38354C12.1314 5.39862 12.2558 5.41369 12.3802 5.43631C12.4556 5.44762 12.5273 5.4627 12.6026 5.48155C12.678 5.5004 12.7497 5.51925 12.8213 5.53809C12.9683 5.57956 13.1191 5.6248 13.2623 5.67757C13.5526 5.78313 13.824 5.91507 14.0841 6.06585C14.3405 6.21664 14.5817 6.39005 14.8079 6.5823C14.921 6.68032 15.0266 6.7821 15.1284 6.88765C15.1811 6.94043 15.2301 6.9932 15.2791 7.04975C15.3281 7.10629 15.3771 7.16284 15.4224 7.21938C15.4714 7.27593 15.5166 7.33624 15.5581 7.39656C15.69 7.5775 15.8069 7.77353 15.9162 7.97332C15.9351 8.00725 15.9501 8.04118 15.969 8.07511C16.0029 8.14296 16.0331 8.21082 16.067 8.28244C16.0821 8.31637 16.0972 8.35406 16.1122 8.38799C16.1386 8.45962 16.165 8.53124 16.1914 8.60286C16.2027 8.64056 16.2178 8.67449 16.2291 8.71219C16.2404 8.74988 16.2517 8.78758 16.263 8.82528C16.3045 8.97607 16.3422 9.12685 16.3648 9.27764C16.3874 9.42843 16.4063 9.57545 16.41 9.72624C16.4213 9.9675 16.4138 10.2012 16.3874 10.4312C16.3799 10.4839 16.3723 10.5367 16.3648 10.5895C16.3535 10.6611 16.3422 10.729 16.3233 10.7968C16.3083 10.8647 16.2894 10.9363 16.2743 11.0042C16.2442 11.1059 16.214 11.2077 16.1763 11.3057C16.067 11.6036 15.9238 11.8863 15.7428 12.1464C15.6222 12.3198 15.4865 12.4819 15.3357 12.6327C15.2867 12.6817 15.2339 12.7307 15.1811 12.7759C15.1057 12.8438 15.019 12.9116 14.9323 12.9757C14.9022 12.9983 14.872 13.0172 14.8456 13.0398C14.8155 13.0587 14.7853 13.0813 14.7552 13.1001C14.6948 13.1378 14.6308 13.1755 14.5667 13.2094C14.5327 13.2283 14.4988 13.2434 14.4649 13.2585C14.4046 13.2886 14.348 13.3112 14.2839 13.3376C14.2312 13.3602 14.1746 13.3791 14.1143 13.3979C14.0578 13.4168 13.9974 13.4319 13.9371 13.4507C13.8127 13.4809 13.6808 13.5073 13.5451 13.5186C13.5111 13.5186 13.4772 13.5223 13.4433 13.5261C13.3076 13.5336 13.1719 13.5261 13.0286 13.5073C12.8364 13.4809 12.663 13.4243 12.5084 13.3489C12.4292 13.3112 12.3576 13.2698 12.286 13.2245C12.2144 13.1793 12.1503 13.1265 12.0862 13.0737C12.056 13.0473 12.0259 13.0172 11.9957 12.987C11.9354 12.9267 11.8826 12.8626 11.8336 12.7948C11.8072 12.7608 11.7846 12.7232 11.762 12.6892C11.7394 12.6515 11.7205 12.6138 11.6979 12.5761C11.6602 12.497 11.6263 12.4178 11.5999 12.3311C11.5886 12.2896 11.5773 12.2444 11.566 12.2029C11.5471 12.1162 11.5434 12.0295 11.5396 11.9391C11.5396 11.8863 11.5396 11.8335 11.5471 11.7845C11.5547 11.743 11.5622 11.6978 11.5698 11.6601C11.615 11.4867 11.6979 11.3434 11.7922 11.2341C11.8902 11.1248 11.9995 11.0381 12.1201 10.9778C12.2445 10.9175 12.3765 10.8835 12.5084 10.8835C12.5235 10.8835 12.5423 10.8835 12.5574 10.8835C12.6253 10.8911 12.6894 10.9062 12.7459 10.9288C12.7761 10.9401 12.8024 10.9552 12.825 10.9702C12.8364 10.9778 12.8514 10.9853 12.8628 10.9929L12.9155 11.0343C12.9155 11.0343 12.9381 11.0532 12.9495 11.0645C12.9608 11.0758 12.9683 11.0871 12.9721 11.1022C12.9871 11.1361 12.9947 11.1738 12.9872 11.2115C12.9872 11.219 12.9872 11.2266 12.9834 11.2303C12.5951 10.9552 12.0862 11.2303 12.0523 11.728C12.0372 11.9617 12.1427 12.1841 12.3086 12.35C12.776 12.8212 13.6016 12.7985 14.2688 12.3688C15.0077 11.8486 15.298 11.0306 15.1396 9.99012C15.0077 9.13062 14.5742 8.33145 13.873 7.815C13.3981 7.46818 12.8062 7.21938 12.139 7.17792C11.1626 7.1176 10.19 7.36263 9.34939 7.864C7.73596 8.83282 6.98956 10.4425 7.50977 12.9003C8.05261 15.558 9.97893 16.6022 12.433 16.7982C13.8843 16.9151 15.3394 16.5155 16.4779 15.6107C17.8764 14.4987 18.6606 12.8099 18.2384 11.0796C18.2497 11.0758 18.2572 11.072 18.2685 11.0683C18.2723 11.0683 18.2798 11.0683 18.2836 11.0645C18.2949 11.0645 18.3024 11.0645 18.3137 11.0645C18.325 11.0645 18.3364 11.0645 18.3477 11.0645C18.3778 11.0683 18.408 11.0833 18.4268 11.1022C18.4306 11.1059 18.4381 11.1135 18.4419 11.1173C18.4532 11.1286 18.4608 11.1399 18.4683 11.1512C18.4721 11.1587 18.4758 11.1625 18.4796 11.17L18.5173 11.2605C18.6492 11.5772 18.7284 11.9127 18.7736 12.2632C18.8113 12.6101 18.8151 12.972 18.7736 13.3301L18.751 13.3489Z" fill="#46597C" fill-opacity="0.9"/>
</g>
<path d="M23 12C23 17.8732 18.4047 22.6645 12.6107 22.9812C12.4109 22.9962 12.2036 23 12 23C5.927 23 1 18.0768 1 12C1 5.92323 5.927 1 12 1C12.2036 1 12.4109 1.00377 12.6107 1.01885C18.4047 1.3355 23 6.1268 23 12Z" stroke="#46597C" stroke-opacity="0.9" stroke-miterlimit="10" stroke-linejoin="round"/>
</g>
<defs>
<clipPath id="clip0_12_105811">
<rect width="24" height="24" rx="12" fill="white"/>
</clipPath>
</defs>
</svg>
