<svg width="25" height="24" viewBox="0 0 25 24" fill="none" xmlns="http://www.w3.org/2000/svg">
<path d="M13.6761 22.9359C13.4914 22.9585 13.3029 22.9736 13.1107 22.9812C12.9109 22.9962 12.7036 23 12.5 23C6.427 23 1.5 18.0768 1.5 12C1.5 5.92323 6.427 1 12.5 1C12.7036 1 12.9109 1.00377 13.1107 1.01885C13.3029 1.02639 13.4914 1.04147 13.6761 1.06408C8.1573 1.65216 3.85607 6.32282 3.85607 12C3.85607 17.6772 8.1573 22.3478 13.6761 22.9359Z" stroke="#46597C" stroke-opacity="0.9" stroke-linecap="round" stroke-linejoin="round"/>
<path d="M23.4999 12.0004C23.4999 17.3232 19.7264 21.7564 14.7052 22.778C14.4564 22.827 14.2038 22.8722 13.9475 22.9061C13.8947 22.9137 13.8419 22.9174 13.7891 22.925C13.7514 22.9287 13.7137 22.9325 13.676 22.9363C8.15719 22.3482 3.85596 17.6775 3.85596 12.0004C3.85596 6.32319 8.15719 1.65253 13.676 1.06445C13.7137 1.06445 13.7514 1.07199 13.7891 1.07576C13.8419 1.0833 13.8947 1.08707 13.9475 1.09461C14.2038 1.12854 14.4564 1.17377 14.7052 1.22278C19.7264 2.24437 23.4999 6.67754 23.4999 12.0004Z" fill="#46597C" fill-opacity="0.9" stroke="#46597C" stroke-opacity="0.9" stroke-linecap="round" stroke-linejoin="round"/>
</svg>
