<svg width="25" height="24" viewBox="0 0 25 24" fill="none" xmlns="http://www.w3.org/2000/svg">
<g clip-path="url(#clip0_1572_56998)">
<path opacity="0.5" d="M4.4043 9.74414V20.3632H21.195V9.74414H4.4043ZM16.2948 13.5118L12.1508 19.1039L8.93143 15.2359C9.2343 14.9738 9.60337 14.8468 9.97044 14.8468C10.4258 14.8468 10.8771 15.0434 11.194 15.4243L12.0786 16.487L15.9839 11.2164C16.4011 11.5379 16.6197 12.0273 16.6197 12.5228C16.6197 12.8688 16.5134 13.2149 16.2948 13.5118Z" fill="white"/>
<path d="M14.937 3.72461H10.6626V5.36272H14.937V3.72461Z" fill="white"/>
<path d="M22.7998 21.9997H2.7998V3.72461H3.903C4.78957 3.72461 5.50766 4.45766 5.50766 5.36272H4.40446V20.3616H21.1952V5.36272H20.094C20.094 4.45766 20.812 3.72461 21.6986 3.72461H22.7998V21.9997Z" fill="white"/>
<path d="M21.9974 8.10742H3.60205V9.74553H21.9974V8.10742Z" fill="white"/>
<path d="M16.7144 6.08783V4.63811C16.7144 3.73305 17.4324 3 18.319 3V4.44973C18.319 5.35478 17.6009 6.08783 16.7144 6.08783Z" fill="white"/>
<path d="M8.88737 6.08783C8.0008 6.08783 7.28271 5.35478 7.28271 4.44973V3C8.16929 3 8.88737 3.73305 8.88737 4.63811V6.08783Z" fill="white"/>
</g>
<rect x="1.2998" y="0.5" width="23" height="23" stroke="black"/>
<defs>
<clipPath id="clip0_1572_56998">
<rect width="20" height="19" fill="white" transform="translate(2.7998 3)"/>
</clipPath>
</defs>
</svg>
