<svg width="25" height="24" viewBox="0 0 25 24" fill="none" xmlns="http://www.w3.org/2000/svg">
<g clip-path="url(#clip0_1482_61546)">
<path d="M15.437 3.6875H11.1626V5.23939H15.437V3.6875Z" fill="white"/>
<path d="M23.2998 21.0008H3.2998V3.6875H4.403C5.28957 3.6875 6.00766 4.38197 6.00766 5.23939H4.90446V19.4489H21.6952V5.23939H20.594C20.594 4.38197 21.312 3.6875 22.1986 3.6875H23.2998V21.0008Z" fill="white"/>
<path d="M22.4974 7.83984H4.10205V9.39173H22.4974V7.83984Z" fill="white"/>
<path d="M12.651 18.2536L9.43164 14.5911C10.1076 14.0363 11.1205 14.1159 11.6942 14.7677L12.5788 15.7745L16.4841 10.7812C17.1901 11.2992 17.3305 12.2711 16.795 12.9558L12.651 18.2536Z" fill="white"/>
<path d="M17.2144 5.92532V4.55189C17.2144 3.69447 17.9324 3 18.819 3V4.37342C18.819 5.23084 18.1009 5.92532 17.2144 5.92532Z" fill="white"/>
<path d="M9.38737 5.92532C8.5008 5.92532 7.78271 5.23084 7.78271 4.37342V3C8.66929 3 9.38737 3.69447 9.38737 4.55189V5.92532Z" fill="white"/>
</g>
<defs>
<clipPath id="clip0_1482_61546">
<rect width="20" height="18" fill="white" transform="translate(3.2998 3)"/>
</clipPath>
</defs>
</svg>
