<svg width="25" height="24" viewBox="0 0 25 24" fill="none" xmlns="http://www.w3.org/2000/svg">
<g clip-path="url(#clip0_1482_61599)">
<path d="M3.07123 17.1844C2.87651 17.1844 2.68851 17.1051 2.55086 16.9636C0.748021 15.1103 0.748021 12.0958 2.55086 10.2426L9.38117 3.2213C9.66821 2.92623 10.1349 2.92623 10.4219 3.2213C12.2247 5.07454 12.2247 8.08907 10.4219 9.94231L3.5916 16.9618C3.45396 17.1033 3.26595 17.1827 3.07123 17.1827V17.1844ZM9.83943 4.88991L3.5916 11.3124C2.54247 12.3909 2.38971 14.0474 3.13334 15.295L9.38117 8.87247C10.4303 7.794 10.5831 6.13748 9.83943 4.88991Z" fill="white"/>
<path d="M21.3281 17.1827C21.1334 17.1827 20.9454 17.1033 20.8077 16.9618L13.9791 9.94231C12.1762 8.08907 12.1762 5.07454 13.9791 3.2213C14.2661 2.92623 14.7328 2.92623 15.0198 3.2213L21.8485 10.2408C23.6513 12.0941 23.6513 15.1086 21.8485 16.9618C21.7108 17.1033 21.5228 17.1827 21.3281 17.1827ZM14.5599 4.88818C13.8163 6.13575 13.969 7.79228 15.0181 8.87074L21.266 15.2932C22.0096 14.0457 21.8568 12.3891 20.8077 11.3107L14.5599 4.88818Z" fill="white"/>
<path opacity="0.5" d="M7.01117 22C6.82317 22 6.63516 21.9258 6.4908 21.7792C4.68796 19.9259 4.68796 16.9114 6.4908 15.0582L9.37971 12.0885C9.66675 11.7934 10.1334 11.7934 10.4205 12.0885C12.2233 13.9417 12.2233 16.9563 10.4205 18.8095L7.53155 21.7792C7.38718 21.9276 7.19918 22 7.01117 22ZM9.83965 13.7554L7.53155 16.128C6.48241 17.2065 6.32965 18.863 7.07328 20.1106L9.38139 17.7379C10.4305 16.6595 10.5833 15.0029 9.83965 13.7554Z" fill="white"/>
<path opacity="0.5" d="M17.3884 21.9996C17.1936 21.9996 17.0056 21.9202 16.868 21.7787L13.9791 18.8091C12.1762 16.9558 12.1762 13.9413 13.9791 12.0881C14.1167 11.9466 14.3047 11.8672 14.4995 11.8672C14.6942 11.8672 14.8822 11.9466 15.0198 12.0881L17.9087 15.0577C19.7116 16.911 19.7116 19.9255 17.9087 21.7787C17.7711 21.9202 17.5831 21.9996 17.3884 21.9996ZM14.5599 13.7549C13.8163 15.0025 13.969 16.659 15.0181 17.7375L17.3263 20.1101C18.0699 18.8626 17.9171 17.206 16.868 16.1276L14.5599 13.7549Z" fill="white"/>
</g>
<defs>
<clipPath id="clip0_1482_61599">
<rect width="22" height="19" fill="white" transform="translate(1.19971 3)"/>
</clipPath>
</defs>
</svg>
