<svg width="25" height="24" viewBox="0 0 25 24" fill="none" xmlns="http://www.w3.org/2000/svg">
<g clip-path="url(#clip0_1572_56431)">
<path d="M9.73714 8.81528L2.4206 16.0426C0.794697 14.4369 0.794697 11.833 2.4206 10.2274L9.73714 3C11.363 4.60568 11.363 7.20959 9.73714 8.81528Z" fill="white"/>
<path d="M14.6647 8.81528L21.9813 16.0409C23.6072 14.4352 23.6072 11.8313 21.9813 10.2256L14.6647 3C13.0388 4.60568 13.0388 7.20959 14.6647 8.81528Z" fill="white"/>
<g opacity="0.5">
<path d="M9.73662 17.9442L6.6413 21.001C5.0154 19.3953 5.0154 16.7914 6.6413 15.1857L9.73662 12.1289C11.3625 13.7346 11.3625 16.3385 9.73662 17.9442Z" fill="white"/>
<path d="M14.6647 17.9442L17.7601 21.001C19.386 19.3953 19.386 16.7914 17.7601 15.1857L14.6647 12.1289C13.0388 13.7346 13.0388 16.3385 14.6647 17.9442Z" fill="white"/>
</g>
</g>
<defs>
<clipPath id="clip0_1572_56431">
<rect width="22" height="18" fill="white" transform="translate(1.20117 3)"/>
</clipPath>
</defs>
</svg>
