<svg width="48" height="48" viewBox="0 0 48 48" fill="none" xmlns="http://www.w3.org/2000/svg">
<rect width="48" height="48" rx="4" fill="white"/>
<g clip-path="url(#clip0_248_74750)">
<path d="M23.4796 11.8574H18.3789V13.7847H23.4796V11.8574Z" fill="#F05043"/>
<path d="M18.5392 32.742C18.8302 32.1778 17.3604 31.9213 17.7824 31.4376H10.9137V13.7847H12.2307C12.2307 12.7221 11.3721 11.8574 10.317 11.8574H9V33.3722H19.3032C19.325 33.2769 18.4955 32.8373 18.5392 32.7493V32.742Z" fill="#F05043"/>
<path d="M30.9518 22.4902C31.5994 22.4609 32.2542 21.9919 32.8654 22.2118V11.8574H31.5484C30.4934 11.8574 29.6348 12.7221 29.6348 13.7847H30.9518V22.4976V22.4902Z" fill="#F05043"/>
<path d="M31.9134 17.0088H9.96094V18.936H31.9134V17.0088Z" fill="#F05043"/>
<path d="M25.6035 14.6347V12.9272C25.6035 11.8647 26.4621 11 27.5172 11V12.7074C27.5172 13.77 26.6586 14.6347 25.6035 14.6347Z" fill="#F05043"/>
<path d="M16.2613 14.6347C15.2063 14.6347 14.3477 13.77 14.3477 12.7074V11C15.4027 11 16.2613 11.8647 16.2613 12.9272V14.6347Z" fill="#F05043"/>
<path d="M22.3156 37.5049C22.2793 37.5049 22.2356 37.5049 22.1992 37.4976C21.8063 37.4316 21.5444 37.0579 21.6099 36.6695C21.9664 34.4931 21.1951 32.1042 19.4852 30.111C17.9353 28.301 15.8252 27.1505 14.1008 27.1505C14.0717 27.1505 14.0425 27.1505 14.0134 27.1505C13.6205 27.1505 13.3004 26.8354 13.2931 26.4397C13.2858 26.044 13.5987 25.7069 13.9989 25.6996C16.2036 25.6263 18.6994 26.982 20.5766 29.1584C22.563 31.474 23.4653 34.2953 23.036 36.8967C22.9778 37.2484 22.6722 37.5049 22.3302 37.5049H22.3156Z" fill="#F05043"/>
<path d="M26.1422 38.9999C24.1849 38.9999 22.3659 38.1206 21.1435 36.5817L13.4379 26.8722C13.2487 26.6304 13.2269 26.2933 13.3942 26.0368L16.4721 21.1051C16.654 20.812 17.0105 20.6948 17.3307 20.812C19.7974 21.7353 22.5987 22.1604 26.1422 22.1604C29.6858 22.1604 32.4871 21.728 34.9538 20.812C35.2739 20.6948 35.6305 20.812 35.8124 21.1051L38.8902 26.0368C39.0503 26.3006 39.0358 26.6304 38.8466 26.8722L31.141 36.5817C29.9186 38.1206 28.0996 38.9999 26.1422 38.9999ZM14.8786 26.3666L22.264 35.673C23.2099 36.8675 24.6215 37.549 26.1422 37.549C27.663 37.549 29.0673 36.8675 30.0205 35.673L37.4059 26.3666L34.9029 22.3582C32.4071 23.2083 29.6057 23.604 26.1422 23.604C22.6787 23.604 19.8774 23.2083 17.3816 22.3582L14.8786 26.3666Z" fill="#F05043"/>
<path d="M29.9694 37.505C29.6274 37.505 29.3218 37.2558 29.2636 36.8968C28.8343 34.2954 29.7292 31.4741 31.7229 29.1585C33.5638 27.0114 36.0378 25.6924 38.1988 25.6924C38.2352 25.6924 38.2643 25.6924 38.3007 25.6924C38.6936 25.6997 39.0137 26.0295 39.0065 26.4325C39.0065 26.8282 38.679 27.1433 38.2861 27.1433C38.257 27.1433 38.2279 27.1433 38.1988 27.1433C36.4671 27.1433 34.3642 28.3011 32.8144 30.1038C31.1045 32.097 30.3259 34.4859 30.6897 36.6623C30.7552 37.058 30.486 37.4317 30.1003 37.4903C30.0639 37.4903 30.0203 37.4977 29.9839 37.4977L29.9694 37.505Z" fill="#F05043"/>
</g>
<defs>
<clipPath id="clip0_248_74750">
<rect width="30" height="28" fill="white" transform="translate(9 11)"/>
</clipPath>
</defs>
</svg>
