<svg width="48" height="48" viewBox="0 0 48 48" fill="none" xmlns="http://www.w3.org/2000/svg">
<rect width="48" height="48" rx="4" fill="white"/>
<g clip-path="url(#clip0_248_74756)">
<path d="M24.28 12.3902C30.84 12.3902 36.18 17.7302 36.18 24.2902C36.18 30.8502 30.84 36.1902 24.28 36.1902C17.72 36.1902 12.39 30.8502 12.39 24.2802C12.39 24.0902 12.55 23.9302 12.74 23.9302C12.93 23.9302 13.09 24.0902 13.09 24.2802C13.09 30.4602 18.12 35.4902 24.3 35.4902C30.48 35.4902 35.51 30.4602 35.51 24.2802C35.51 18.1002 30.46 13.0802 24.28 13.0802C24.09 13.0802 23.93 12.9202 23.93 12.7302C23.93 12.5402 24.09 12.3802 24.28 12.3802M24.28 10.9902C23.32 10.9902 22.55 11.7702 22.55 12.7202C22.55 13.6702 23.33 14.4502 24.28 14.4502C29.69 14.4502 34.1 18.8602 34.1 24.2702C34.1 29.6802 29.69 34.0902 24.28 34.0902C18.87 34.0902 14.46 29.7002 14.46 24.2802C14.46 23.3202 13.68 22.5502 12.73 22.5502C11.78 22.5502 11 23.3302 11 24.2802C11 31.6002 16.96 37.5602 24.28 37.5602C31.6 37.5602 37.56 31.6002 37.56 24.2802C37.56 16.9602 31.61 11.0002 24.28 11.0002V10.9902Z" fill="#F05043"/>
<path d="M19.3498 15.7601C20.2279 15.7601 20.9398 15.0482 20.9398 14.1701C20.9398 13.2919 20.2279 12.5801 19.3498 12.5801C18.4716 12.5801 17.7598 13.2919 17.7598 14.1701C17.7598 15.0482 18.4716 15.7601 19.3498 15.7601Z" fill="#F05043"/>
<path d="M13.5509 21.1102C14.4291 21.1102 15.1409 20.3983 15.1409 19.5202C15.1409 18.642 14.4291 17.9302 13.5509 17.9302C12.6728 17.9302 11.9609 18.642 11.9609 19.5202C11.9609 20.3983 12.6728 21.1102 13.5509 21.1102Z" fill="#F05043"/>
<path d="M23.2599 18.1899C24.1599 18.1899 25.0099 18.3799 25.7899 18.7099C28.0599 19.6899 29.6399 21.9399 29.6399 24.5699C29.6399 26.0599 29.1299 27.4199 28.2799 28.5099C28.2299 28.5799 28.1699 28.6499 28.1199 28.7099C27.3499 29.6099 26.2699 30.1899 25.0999 30.3399C25.0999 30.3399 25.0899 30.3399 25.0799 30.3399C24.5099 30.4099 23.8999 30.3999 23.2799 30.2999C22.9399 30.2399 22.5899 30.1599 22.2699 30.0399C20.7299 29.5299 19.5399 28.2899 19.0899 26.7299C18.9799 26.3199 18.9199 25.9099 18.9199 25.5099C18.9199 24.2999 19.4199 23.2199 20.3299 22.4699C20.3299 22.4699 20.3399 22.4699 20.3499 22.4599C21.0899 21.8999 21.8699 21.6499 22.6399 21.7499C22.7999 21.7699 22.9799 21.8099 23.1499 21.8599C23.8599 22.0999 24.6899 22.7299 24.6899 23.7299C24.6899 23.7299 24.6899 23.7599 24.6899 23.7699C24.6899 23.7799 24.6899 23.7899 24.6899 23.8099C24.6899 24.1199 24.5599 24.5199 24.2599 24.7299C24.1699 24.7899 24.0699 24.8299 23.9599 24.8299C23.7199 24.8299 23.5299 24.6499 23.4899 24.4299C23.4699 24.3299 23.4399 24.1999 23.3599 24.0899H23.3499C23.1899 23.8899 22.9099 23.6699 22.2399 23.8399H22.2299C21.7599 23.9999 21.4099 24.4199 21.2599 25.0099C21.2199 25.1599 21.2099 25.3099 21.2099 25.4599C21.2099 26.1199 21.5299 26.7799 22.0999 27.2699C22.4199 27.5499 22.7699 27.7499 23.1499 27.8799C24.2399 28.2399 25.5299 27.9799 26.5299 27.1899C26.5299 27.1899 26.5399 27.1899 26.5499 27.1799C27.4399 26.4399 27.9899 25.4199 28.1399 24.2199C28.1599 24.0599 28.1699 23.8899 28.1699 23.7099C28.1699 22.9599 27.9899 22.1699 27.6199 21.3799V21.3599C26.9599 20.0899 25.8599 19.1399 24.4499 18.5999C24.4499 18.5999 24.4399 18.5999 24.4299 18.5999C24.0599 18.4699 23.6799 18.3699 23.2899 18.3099C23.2499 18.3099 23.2199 18.2999 23.1799 18.2999C23.1099 18.2999 23.0399 18.2599 22.9799 18.2299C23.0699 18.2299 23.1699 18.2299 23.2599 18.2299V18.1899Z" fill="#F05043"/>
</g>
<defs>
<clipPath id="clip0_248_74756">
<rect width="26.57" height="26.57" fill="white" transform="translate(11 11)"/>
</clipPath>
</defs>
</svg>
