<svg width="48" height="48" viewBox="0 0 48 48" fill="none" xmlns="http://www.w3.org/2000/svg">
<rect width="48" height="48" rx="4" fill="white"/>
<g clip-path="url(#clip0_248_74759)">
<path d="M28.5207 19.98V22.05H20.4707V19.98C20.4707 17.76 22.2707 15.96 24.4907 15.96C25.6007 15.96 26.6107 16.41 27.3407 17.14C28.0707 17.87 28.5207 18.87 28.5207 19.98Z" fill="#F05043"/>
<path d="M20.4707 25.48H28.5207V27.55C28.5207 29.77 26.7207 31.58 24.4907 31.58C22.2607 31.58 20.4707 29.78 20.4707 27.55V25.48Z" fill="#F05043"/>
<path d="M27.6807 22.9199H21.3107C20.8468 22.9199 20.4707 23.296 20.4707 23.7599V23.7699C20.4707 24.2338 20.8468 24.6099 21.3107 24.6099H27.6807C28.1446 24.6099 28.5207 24.2338 28.5207 23.7699V23.7599C28.5207 23.296 28.1446 22.9199 27.6807 22.9199Z" fill="#F05043"/>
<path d="M30.9001 28.23C30.9001 31.58 28.7001 34.91 24.4901 34.91C20.2801 34.91 18.0801 31.57 18.0801 28.23" stroke="#F05043" stroke-width="1.39" stroke-linecap="round" stroke-linejoin="round"/>
<path d="M24.5 34.9102V37.6602" stroke="#F05043" stroke-width="1.39" stroke-linecap="round" stroke-linejoin="round"/>
<path d="M21.0098 37.6602H27.9798" stroke="#F05043" stroke-width="1.39" stroke-linecap="round" stroke-linejoin="round"/>
<path d="M31.4107 23.27C31.8107 22.35 32.0307 21.34 32.0307 20.28C32.0307 16.12 28.6607 12.75 24.5007 12.75C20.3407 12.75 16.9707 16.12 16.9707 20.28C16.9707 21.34 17.1907 22.36 17.5907 23.27" stroke="#F05043" stroke-width="1.39" stroke-linecap="round" stroke-linejoin="round"/>
<path d="M15.4895 26.4599C14.3495 24.7499 13.6895 22.6999 13.6895 20.4899C13.6895 14.5299 18.5295 9.68994 24.4995 9.68994C30.4695 9.68994 35.3095 14.5299 35.3095 20.4899C35.3095 22.6999 34.6495 24.7499 33.5095 26.4599" stroke="#F05043" stroke-width="1.39" stroke-linecap="round" stroke-linejoin="round"/>
</g>
<defs>
<clipPath id="clip0_248_74759">
<rect width="22.99" height="29.35" fill="white" transform="translate(13 9)"/>
</clipPath>
</defs>
</svg>
