<svg width="48" height="48" viewBox="0 0 48 48" fill="none" xmlns="http://www.w3.org/2000/svg">
<rect width="48" height="48" rx="4" fill="white"/>
<mask id="mask0_248_74762" style="mask-type:luminance" maskUnits="userSpaceOnUse" x="8" y="7" width="32" height="33">
<path d="M23.7009 39.1C32.2999 39.1 39.2709 32.129 39.2709 23.53C39.2709 14.9309 32.2999 7.95996 23.7009 7.95996C15.1018 7.95996 8.13086 14.9309 8.13086 23.53C8.13086 32.129 15.1018 39.1 23.7009 39.1Z" fill="white"/>
</mask>
<g mask="url(#mask0_248_74762)">
<g opacity="0.5">
<path d="M13.5 21.3397C13.5 19.9397 13.5 17.9697 13.5 16.5797C15.03 16.5797 17.53 16.5797 19.09 16.5797C19.09 15.1597 19.09 8.98971 19.09 7.69971" stroke="#F05043" stroke-width="1.39" stroke-linecap="round" stroke-linejoin="round"/>
<path d="M21.7704 7.68994C21.7704 8.77994 21.7704 17.9199 21.7704 19.2599H16.1804C16.1804 20.5299 16.1804 29.4699 16.1804 30.9499H9.90039V39.3699" stroke="#F05043" stroke-width="1.39" stroke-linecap="round" stroke-linejoin="round"/>
<path d="M13.5007 21.3398V28.2798C11.8307 28.2798 8.8607 28.2798 7.2207 28.2798C7.2207 30.1198 7.2207 37.4198 7.2207 39.3798" stroke="#F05043" stroke-width="1.39" stroke-linecap="round" stroke-linejoin="round"/>
</g>
<path d="M5.69141 24.7199H9.69141V15.0999V13.0199H15.2814V7.68994" stroke="#F05043" stroke-width="1.39" stroke-linecap="round" stroke-linejoin="round"/>
<path d="M5.95117 22.0299H7.01117V10.3399H12.6012V7.68994" stroke="#F05043" stroke-width="1.39" stroke-linecap="round" stroke-linejoin="round"/>
<g opacity="0.5">
<path d="M39.8408 7.68994V18.7899H33.6408C33.6408 20.4099 33.6408 29.1199 33.6408 30.9299H28.0508C28.0508 32.3399 28.0508 37.8599 28.0508 39.3699" stroke="#F05043" stroke-width="1.39" stroke-linecap="round" stroke-linejoin="round"/>
<path d="M25.3711 39.3797C25.3811 36.3497 25.3711 31.2197 25.3711 28.2597C26.9011 28.2597 29.4111 28.2597 30.9611 28.2597C30.9611 26.4597 30.9611 20.4997 30.9611 18.7997C30.9611 18.1397 30.9611 16.7797 30.9611 16.1197C32.5911 16.0997 35.5111 16.1297 37.1611 16.1197V7.69971" stroke="#F05043" stroke-width="1.39" stroke-linecap="round" stroke-linejoin="round"/>
</g>
<path d="M41.7005 24.9399H39.5705C39.5705 26.3099 39.5705 35.1999 39.5705 36.7799H33.9805C33.9805 37.1399 33.9805 39.0599 33.9805 39.3799" stroke="#F05043" stroke-width="1.39" stroke-linecap="round" stroke-linejoin="round"/>
<path d="M41.4808 22.25C40.1208 22.25 38.2408 22.25 36.8908 22.25C36.8908 22.92 36.8908 24.26 36.8908 24.93C36.8908 26.4 36.8908 32.5 36.8908 34.09C35.3308 34.09 32.8408 34.09 31.3008 34.09C31.3008 35.68 31.3008 37.78 31.3008 39.37" stroke="#F05043" stroke-width="1.39" stroke-linecap="round" stroke-linejoin="round"/>
<path d="M15.832 39.3799V36.7899H22.112C22.112 35.2299 22.112 26.4199 22.112 25.0999H27.702C27.702 23.2599 27.702 14.6199 27.702 12.9599H33.702V7.68994" stroke="#F05043" stroke-width="1.39" stroke-linecap="round" stroke-linejoin="round"/>
<path d="M13.1523 39.38C13.1623 37.86 13.1523 35.62 13.1523 34.12C14.7723 34.14 17.7823 34.1 19.4323 34.12C19.4323 32.57 19.4323 26.53 19.4323 25.11C19.4323 24.44 19.4323 23.1 19.4323 22.43H20.7723C21.6423 22.43 24.1123 22.43 25.0223 22.43C25.0123 19.85 25.0223 14.15 25.0223 11.63V10.29C25.6923 10.29 27.0423 10.29 27.7023 10.29H31.0223V7.70996" stroke="#F05043" stroke-width="1.39" stroke-linecap="round" stroke-linejoin="round"/>
</g>
</svg>
