<svg width="48" height="48" viewBox="0 0 48 48" fill="none" xmlns="http://www.w3.org/2000/svg">
<rect width="48" height="48" rx="4" fill="white"/>
<g clip-path="url(#clip0_248_74733)">
<path d="M27.0899 13.6699H22.1699V15.5199H27.0899V13.6699Z" fill="#F05043"/>
<path d="M20.6694 34.0199C20.9494 33.4799 21.1894 32.8999 21.5894 32.4299H14.9594V15.5199H16.2294C16.2294 14.4999 15.3994 13.6699 14.3794 13.6699H13.1094V34.2899H20.5694C20.5894 34.1999 20.6194 34.1099 20.6694 34.0299V34.0199Z" fill="#F05043"/>
<path d="M34.2993 21.1899C34.9193 21.1599 35.5593 21.2599 36.1493 21.4699V13.6699H34.8793C33.8593 13.6699 33.0293 14.4999 33.0293 15.5199H34.2993V21.1899Z" fill="#F05043"/>
<path d="M35.2191 18.6099H14.0391V20.4599H35.2191V18.6099Z" fill="#F05043"/>
<path d="M29.1387 16.3401V14.7001C29.1387 13.6801 29.9687 12.8501 30.9887 12.8501V14.4901C30.9887 15.5101 30.1587 16.3401 29.1387 16.3401Z" fill="#F05043"/>
<path d="M20.1293 16.3401C19.1093 16.3401 18.2793 15.5101 18.2793 14.4901V12.8501C19.2993 12.8501 20.1293 13.6801 20.1293 14.7001V16.3401Z" fill="#F05043"/>
<path d="M37.8792 28.2403L28.4092 37.7103C26.6992 39.4203 23.9292 39.4203 22.2292 37.7103C21.3792 36.8603 20.9492 35.7403 20.9492 34.6203C20.9492 33.5003 21.3792 32.3803 22.2292 31.5303L31.6992 22.0603C33.4092 20.3503 36.1792 20.3503 37.8892 22.0603C39.5992 23.7703 39.5992 26.5403 37.8892 28.2503L37.8792 28.2403Z" stroke="#F05043" stroke-width="1.39" stroke-linecap="round" stroke-linejoin="round"/>
<path d="M32.8919 27.052L32.8848 27.045C32.2678 26.4279 31.2674 26.4279 30.6503 27.045L27.2138 30.4815C26.5968 31.0985 26.5968 32.0989 27.2138 32.716L27.2209 32.723C27.8379 33.3401 28.8383 33.3401 29.4553 32.723L32.8919 29.2865C33.5089 28.6695 33.5089 27.6691 32.8919 27.052Z" stroke="#F05043" stroke-width="1.39" stroke-linecap="round" stroke-linejoin="round"/>
<path d="M36.3702 33.6503L33.8102 36.2103C32.6802 37.3403 30.8902 37.4303 29.6602 36.4603L36.6102 29.5103C37.0502 30.0803 37.2802 30.7603 37.2802 31.4403C37.2802 32.2403 36.9702 33.0503 36.3602 33.6603L36.3702 33.6503Z" stroke="#F05043" stroke-width="1.39" stroke-linecap="round" stroke-linejoin="round"/>
<path d="M23.7284 26.1202L26.2884 23.5602C27.4184 22.4302 29.2084 22.3402 30.4384 23.3102L23.4884 30.2602C23.0484 29.6902 22.8184 29.0102 22.8184 28.3302C22.8184 27.5302 23.1284 26.7202 23.7384 26.1102L23.7284 26.1202Z" stroke="#F05043" stroke-width="1.39" stroke-linecap="round" stroke-linejoin="round"/>
<path d="M24.2695 6.70998V4.22998" stroke="#F05043" stroke-width="0.46" stroke-linecap="round" stroke-linejoin="round"/>
<path d="M18.8398 7.56998L17.7598 4.22998" stroke="#F05043" stroke-width="0.46" stroke-linecap="round" stroke-linejoin="round"/>
<path d="M13.9509 10.06L9.71094 4.22998" stroke="#F05043" stroke-width="0.46" stroke-linecap="round" stroke-linejoin="round"/>
<path d="M10.0705 13.95L4.23047 9.70996" stroke="#F05043" stroke-width="0.46" stroke-linecap="round" stroke-linejoin="round"/>
<path d="M7.57047 18.84L4.23047 17.75" stroke="#F05043" stroke-width="0.46" stroke-linecap="round" stroke-linejoin="round"/>
<path d="M6.71047 24.27H4.23047" stroke="#F05043" stroke-width="0.46" stroke-linecap="round" stroke-linejoin="round"/>
<path d="M7.57047 29.6899L4.23047 30.7799" stroke="#F05043" stroke-width="0.46" stroke-linecap="round" stroke-linejoin="round"/>
<path d="M10.0705 34.5898L4.23047 38.8298" stroke="#F05043" stroke-width="0.46" stroke-linecap="round" stroke-linejoin="round"/>
<path d="M13.9509 38.4702L9.71094 44.3102" stroke="#F05043" stroke-width="0.46" stroke-linecap="round" stroke-linejoin="round"/>
<path d="M18.84 40.96V40.97L17.75 44.31" stroke="#F05043" stroke-width="0.46" stroke-linecap="round" stroke-linejoin="round"/>
<path d="M24.2695 44.3098V41.8198" stroke="#F05043" stroke-width="0.46" stroke-linecap="round" stroke-linejoin="round"/>
<path d="M29.6914 40.96V40.97L30.7814 44.31" stroke="#F05043" stroke-width="0.46" stroke-linecap="round" stroke-linejoin="round"/>
<path d="M38.8298 44.3102L34.5898 38.4702" stroke="#F05043" stroke-width="0.46" stroke-linecap="round" stroke-linejoin="round"/>
<path d="M44.3107 38.8298L38.4707 34.5898" stroke="#F05043" stroke-width="0.46" stroke-linecap="round" stroke-linejoin="round"/>
<path d="M44.3107 30.7799L40.9707 29.6899" stroke="#F05043" stroke-width="0.46" stroke-linecap="round" stroke-linejoin="round"/>
<path d="M44.3103 24.27H41.8203" stroke="#F05043" stroke-width="0.46" stroke-linecap="round" stroke-linejoin="round"/>
<path d="M44.3107 17.75L40.9707 18.84" stroke="#F05043" stroke-width="0.46" stroke-linecap="round" stroke-linejoin="round"/>
<path d="M44.3107 9.70996L38.4707 13.95" stroke="#F05043" stroke-width="0.46" stroke-linecap="round" stroke-linejoin="round"/>
<path d="M38.8198 4.22998L34.5898 10.06" stroke="#F05043" stroke-width="0.46" stroke-linecap="round" stroke-linejoin="round"/>
<path d="M30.7714 4.22998L29.6914 7.56998" stroke="#F05043" stroke-width="0.46" stroke-linecap="round" stroke-linejoin="round"/>
</g>
<defs>
<clipPath id="clip0_248_74733">
<rect width="40.54" height="40.54" fill="white" transform="translate(4 4)"/>
</clipPath>
</defs>
</svg>
