<svg width="21" height="22" viewBox="0 0 21 22" fill="none" xmlns="http://www.w3.org/2000/svg">
<path d="M13.8252 20.6254C11.6377 20.6254 9.6252 19.4879 8.4877 17.6504C7.3502 15.8129 7.2627 13.5379 8.2252 11.5254L13.0377 1.81289C13.3002 1.20039 14.2627 1.20039 14.6127 1.81289L19.4252 11.5254C20.3877 13.4504 20.3002 15.8129 19.1627 17.6504C18.0252 19.4879 16.0127 20.6254 13.8252 20.6254ZM13.8252 4.17539L9.8002 12.3129C9.1002 13.7129 9.1877 15.3754 9.9752 16.6879C10.7627 18.0004 12.2502 18.8754 13.8252 18.8754C15.4002 18.8754 16.8877 18.0879 17.6752 16.6879C18.5502 15.3754 18.5502 13.7129 17.8502 12.3129L13.8252 4.17539Z" fill="white" fill-opacity="0.9"/>
<path d="M13.4857 2.03488L13.4918 2.02253L13.4973 2.00985C13.5319 1.92904 13.6257 1.85352 13.7924 1.85352C13.9542 1.85352 14.0981 1.92955 14.1726 2.05093L18.9772 11.7474L18.978 11.749C19.8643 13.5217 19.7821 15.6998 18.7376 17.3872C17.6904 19.0787 15.8381 20.1254 13.8252 20.1254C11.8123 20.1254 9.95994 19.0787 8.91283 17.3872C7.87047 15.7034 7.78321 13.6109 8.67479 11.7442L13.4857 2.03488ZM14.2734 3.95371L13.8252 3.04762L13.377 3.95371L9.35298 12.0893C9.35283 12.0896 9.35267 12.0899 9.35252 12.0902C8.57485 13.6464 8.67316 15.4897 9.54645 16.9451C10.422 18.4045 12.0702 19.3754 13.8252 19.3754C15.5585 19.3754 17.2156 18.5102 18.1017 16.9495C19.0792 15.4699 19.0632 13.6215 18.2979 12.0902C18.2977 12.0899 18.2976 12.0896 18.2974 12.0893L14.2734 3.95371Z" stroke="white" stroke-opacity="0.8"/>
<path d="M4.2001 11.0004C3.0626 11.0004 2.0126 10.3879 1.4001 9.42539C0.787596 8.46289 0.700096 7.23789 1.2251 6.18789L3.4126 1.81289C3.6751 1.20039 4.7251 1.20039 4.9876 1.81289L7.1751 6.18789C7.7001 7.23789 7.6126 8.46289 7.0001 9.42539C6.4751 10.4754 5.3376 11.0004 4.2001 11.0004ZM4.2001 4.17539L2.8001 6.97539C2.5376 7.50039 2.5376 8.02539 2.8876 8.55039C3.1501 8.98789 3.6751 9.25039 4.2001 9.25039C4.7251 9.25039 5.2501 8.98789 5.6001 8.55039C5.8626 8.02539 5.8626 7.50039 5.6001 6.97539L4.2001 4.17539Z" fill="white" fill-opacity="0.9"/>
<path d="M3.85981 2.0365L3.86638 2.02336L3.87217 2.00985C3.90078 1.94309 4.00353 1.85352 4.2001 1.85352C4.39667 1.85352 4.49941 1.94309 4.52802 2.00985L4.53381 2.02336L4.54038 2.0365L6.72788 6.4115C7.17188 7.2995 7.09946 8.33793 6.57827 9.15695L6.56442 9.17871L6.55288 9.20178C6.13371 10.0401 5.2006 10.5004 4.2001 10.5004C3.24455 10.5004 2.34871 9.98476 1.82193 9.15695C1.30073 8.33793 1.22831 7.2995 1.67231 6.4115L3.85981 2.0365ZM4.64731 3.95178L4.2001 3.05736L3.75288 3.95178L2.35288 6.75178C2.19155 7.07445 2.09947 7.42078 2.11459 7.78371C2.12965 8.14513 2.2498 8.49182 2.46518 8.81811C2.83227 9.42041 3.52909 9.75039 4.2001 9.75039C4.88835 9.75039 5.55298 9.40968 5.99053 8.86274L6.02362 8.82138L6.04731 8.774C6.38019 8.10823 6.38019 7.41755 6.04731 6.75178L4.64731 3.95178Z" stroke="white" stroke-opacity="0.8"/>
</svg>
