<svg width="24" height="24" viewBox="0 0 24 24" fill="none" xmlns="http://www.w3.org/2000/svg">
<g opacity="0.6">
<g clip-path="url(#clip0_23_64852)">
<path d="M19.9002 24.0007C19.734 24.0007 19.5657 23.9575 19.4171 23.8711L15.2635 21.4739H11.4181C10.0365 21.4739 8.91064 20.3639 8.91064 18.999V17.2087C8.91064 16.686 9.33912 16.2627 9.86816 16.2627C10.3972 16.2627 10.8257 16.686 10.8257 17.2087V18.999C10.8257 19.3186 11.0902 19.5799 11.4159 19.5799H15.5192C15.6898 19.5799 15.8559 19.6253 16.0024 19.7095L18.9361 21.4027V20.5258C18.9361 20.0032 19.3646 19.5799 19.8936 19.5799H20.4883C20.814 19.5799 21.0763 19.3186 21.0763 18.999V11.6368C21.0763 11.315 20.8118 11.0559 20.4883 11.0559H18.7787C18.2497 11.0559 17.8212 10.6326 17.8212 10.11C17.8212 9.58735 18.2497 9.16406 18.7787 9.16406H20.4883C21.8699 9.16406 22.9935 10.2741 22.9935 11.639V19.0012C22.9935 20.2429 22.0622 21.2752 20.8533 21.4502V23.0548C20.8533 23.3938 20.6697 23.707 20.3724 23.8754C20.2237 23.9596 20.0598 24.0007 19.8958 24.0007H19.9002Z" fill="white"/>
<path d="M4.09457 22.62C3.96996 22.62 3.84317 22.5962 3.72512 22.5466C3.36879 22.3997 3.13706 22.0542 3.13706 21.6741V18.1561C1.39911 18.1107 0 16.6983 0 14.9706V4.18761C0 2.42967 1.4472 1 3.2245 1H16.516C18.2955 1 19.7405 2.42967 19.7405 4.18761V14.9706C19.7405 16.7264 18.2933 18.1561 16.516 18.1561H9.08326L4.76789 22.3479C4.58426 22.525 4.3416 22.62 4.09457 22.62ZM3.2245 2.89399C2.50309 2.89399 1.91503 3.47493 1.91503 4.18761V14.9706C1.91503 15.6833 2.5009 16.2621 3.2245 16.2621H4.09457C4.62361 16.2621 5.05209 16.6854 5.05209 17.208V19.413L8.01644 16.532C8.1957 16.3571 8.43618 16.2599 8.68758 16.2599H16.5138C17.2352 16.2599 17.8233 15.6811 17.8233 14.9685V4.18761C17.8233 3.47493 17.2374 2.89399 16.5138 2.89399H3.2245Z" fill="white"/>
<path d="M11.0815 14.2107C11.0815 14.7723 10.6202 15.2301 10.0519 15.2301C9.48347 15.2301 9.02002 14.7723 9.02002 14.2107C9.02002 13.6492 9.48129 13.1914 10.0519 13.1914C10.6224 13.1914 11.0815 13.6492 11.0815 14.2107Z" fill="white"/>
<path d="M13.6873 7.33826C13.6873 7.83282 13.567 8.29714 13.3309 8.71826C13.1014 9.12643 12.6729 9.60155 12.0258 10.1674C11.5361 10.5971 11.3394 10.8131 11.2629 10.9189C11.158 11.0593 11.0793 11.2256 11.029 11.4092C10.9984 11.5193 10.9765 11.6791 10.959 11.88C10.9219 12.3508 10.5152 12.72 10.0365 12.72C9.78071 12.72 9.54024 12.6185 9.36535 12.4328C9.19046 12.2492 9.09864 12.0009 9.11395 11.7482C9.14455 11.2515 9.21232 10.8908 9.326 10.6468C9.43968 10.3531 9.62331 10.0529 9.87253 9.75704C10.054 9.54324 10.3622 9.24737 10.8169 8.85C11.3307 8.40512 11.5296 8.14812 11.6083 8.01423C11.7132 7.83066 11.7657 7.63845 11.7657 7.42033C11.7657 7.01648 11.6061 6.66878 11.2826 6.35779C10.9546 6.04465 10.5611 5.89131 10.0824 5.89131C9.60363 5.89131 9.2473 6.02737 8.94343 6.31028C8.72045 6.51329 8.54993 6.81563 8.43625 7.20221C8.31602 7.60822 7.93345 7.89113 7.50716 7.89113C7.46781 7.89113 7.43065 7.88897 7.3913 7.88465C7.1071 7.85225 6.85352 7.69676 6.69612 7.4592C6.53653 7.22164 6.49281 6.92793 6.57588 6.65582C6.77044 6.01225 7.10055 5.48315 7.55744 5.08361C8.1936 4.53075 9.03525 4.25 10.0605 4.25C11.1448 4.25 12.028 4.55019 12.686 5.14408C13.3506 5.74446 13.6873 6.48305 13.6873 7.33826Z" fill="white"/>
</g>
</g>
<defs>
<clipPath id="clip0_23_64852">
<rect width="23" height="23" fill="white" transform="translate(0 1)"/>
</clipPath>
</defs>
</svg>
