<svg width="22" height="18" viewBox="0 0 22 18" fill="none" xmlns="http://www.w3.org/2000/svg">
<g opacity="0.7" clip-path="url(#clip0_126_130665)">
<path d="M8.0808 0.0221093C11.3213 -0.208188 14.3411 1.39468 16.053 4.20798C15.181 4.77544 14.0439 4.67779 13.2947 3.94452C11.9174 2.59591 10.0311 1.89765 8.05233 2.08741C4.77982 2.40246 2.17819 5.21208 1.99846 8.60942C1.7867 12.6147 4.87236 15.9421 8.69473 15.9421C10.4333 15.9421 12.0616 15.2585 13.2894 14.061C14.0297 13.3388 15.1312 13.1914 15.9925 13.7533L16.053 13.792C14.4496 16.4266 11.6985 18 8.69295 18C3.7228 18 -0.286424 13.6594 0.0160912 8.44729C0.2759 3.974 3.76195 0.327943 8.07902 0.0221093L8.0808 0.0221093Z" fill="white"/>
<path d="M9 8.99746L9.64666 9.76941L9.19111 10.0273L20.0158 10.0273C20.5639 10.0273 21.0088 9.56675 21.0088 8.99746C21.0088 8.42816 20.5639 7.96941 20.0158 7.96941L9.19289 7.96941L9.64844 8.2255L9 8.99746ZM11.0169 8.99746L9.65378 9.76573L9.65378 8.22919L11.0169 8.99746Z" fill="white"/>
<path d="M18.3947 5.27821L22 9.00902L18.3716 12.7656C17.5957 11.9623 17.5957 10.6598 18.3716 9.85652L19.1902 9.00902L18.3947 8.18548C17.6189 7.38221 17.6189 6.07965 18.3947 5.27637L18.3947 5.27821Z" fill="white"/>
</g>
<defs>
<clipPath id="clip0_126_130665">
<rect width="22" height="18" fill="white" transform="translate(22 18) rotate(-180)"/>
</clipPath>
</defs>
</svg>
