<svg width="24" height="24" viewBox="0 0 24 24" fill="none" xmlns="http://www.w3.org/2000/svg">
<g clip-path="url(#clip0_12_105917)">
<path opacity="0.5" d="M18.7551 13.3489C18.7325 13.5298 18.7098 13.7146 18.6646 13.8917C18.6458 13.9822 18.6231 14.0727 18.5968 14.1594C18.5892 14.182 18.5854 14.2046 18.5779 14.2272C18.5666 14.2687 18.5553 14.3064 18.544 14.3479C18.5364 14.3743 18.5251 14.4006 18.5176 14.427L18.4233 14.6947C18.3894 14.7852 18.3479 14.8681 18.3102 14.9548C18.2952 14.9887 18.2801 15.0189 18.265 15.0528C18.2612 15.0641 18.2537 15.0754 18.2499 15.0867C18.2273 15.1282 18.2047 15.1734 18.1858 15.2149C18.1783 15.23 18.1708 15.2451 18.1632 15.2564C18.1255 15.328 18.0878 15.3996 18.0464 15.4712C17.9974 15.5542 17.9484 15.6409 17.8956 15.7238C17.8428 15.8067 17.7863 15.8859 17.7259 15.9688C17.7109 15.9877 17.6958 16.0103 17.6807 16.0292C17.6505 16.0669 17.6204 16.1083 17.5902 16.146C17.5752 16.1649 17.5601 16.1875 17.545 16.2063C17.5148 16.2478 17.4847 16.2855 17.4507 16.3232C17.4168 16.3609 17.3867 16.3986 17.3527 16.4363C17.2208 16.5871 17.0775 16.7341 16.9268 16.8736C16.776 17.0093 16.6176 17.1488 16.4518 17.2732C16.2859 17.4013 16.1087 17.5144 15.9315 17.6313C15.8675 17.669 15.8071 17.7067 15.7431 17.7406C15.6677 17.7821 15.5885 17.8273 15.5131 17.865C15.4641 17.8914 15.4151 17.914 15.3661 17.9366C15.2681 17.9856 15.17 18.0309 15.072 18.0723C14.9853 18.11 14.8986 18.144 14.8119 18.1779C14.7968 18.1854 14.7818 18.1892 14.7705 18.193C14.5631 18.2646 14.3558 18.3362 14.1409 18.3928C14.0241 18.4229 13.9072 18.4493 13.7903 18.4757C13.534 18.5285 13.2739 18.5699 13.01 18.5925C12.9987 18.5925 12.9911 18.5925 12.9798 18.5925C12.9271 18.5963 12.8781 18.6001 12.8253 18.6039C12.716 18.6114 12.6029 18.6189 12.4935 18.6189H12.158C12.0449 18.6189 11.9394 18.6076 11.8263 18.6039C11.717 18.5963 11.6039 18.5888 11.4945 18.5737L11.1666 18.5322L11.0837 18.5209L11.012 18.5096L10.8688 18.4832L10.5785 18.4267L10.5069 18.4116C10.4843 18.4078 10.4579 18.4041 10.4277 18.3928L10.243 18.3437C9.75293 18.208 9.28172 18.0158 8.83689 17.7783C8.28273 17.4767 7.76628 17.1035 7.30637 16.6625C7.2159 16.572 7.12544 16.4815 7.03496 16.3873C6.94826 16.293 6.86153 16.195 6.7786 16.097C6.70697 16.0103 6.63912 15.9198 6.57127 15.8294C6.55996 15.8143 6.54864 15.803 6.5411 15.7879C6.42424 15.6296 6.31117 15.4675 6.20939 15.2978C6.17546 15.2413 6.14153 15.181 6.1076 15.1244C6.03974 15.0076 5.97943 14.8907 5.91911 14.7701C5.85879 14.6494 5.80224 14.525 5.74947 14.3969C5.65899 14.1745 5.57228 13.9483 5.50443 13.7146C5.49312 13.6806 5.48559 13.6467 5.47428 13.6128C5.43659 13.4808 5.40265 13.3414 5.37627 13.2019C5.36119 13.1303 5.34611 13.0586 5.33481 12.9908C5.3235 12.9192 5.31218 12.8513 5.30087 12.7797C5.29333 12.7382 5.28957 12.7005 5.2858 12.659C5.27449 12.5799 5.26695 12.5007 5.25941 12.4216C5.25941 12.3801 5.25186 12.3424 5.24809 12.3009C5.24432 12.2218 5.23679 12.1426 5.23679 12.0672C5.22548 11.7769 5.23679 11.4942 5.26318 11.2115C5.27072 11.1286 5.27824 11.0456 5.29332 10.9627C5.29332 10.9476 5.2971 10.9325 5.30087 10.9212C5.32349 10.744 5.35364 10.5706 5.39511 10.3972C5.39888 10.3746 5.40641 10.3558 5.41018 10.3331C5.46296 10.107 5.52704 9.88078 5.59867 9.66214C5.61375 9.6169 5.62883 9.57167 5.64768 9.52643C5.69291 9.39826 5.7457 9.27386 5.79848 9.14946C5.85125 9.02506 5.91158 8.90066 5.97189 8.78003C6.03221 8.6594 6.10005 8.53877 6.17168 8.42191C6.23953 8.30505 6.31493 8.18819 6.39033 8.07133C6.70322 7.61519 7.07641 7.18545 7.50993 6.80848C7.61925 6.71424 7.73235 6.62754 7.84922 6.54083C8.1998 6.28072 8.58054 6.05077 8.97259 5.87737C9.13469 5.80197 9.30056 5.73789 9.4702 5.67757C9.57198 5.64365 9.67377 5.60972 9.77555 5.57956C9.91126 5.53809 10.0507 5.50417 10.194 5.47401C10.3335 5.44385 10.4767 5.42123 10.62 5.40238C10.7406 5.38354 10.8612 5.37223 10.9856 5.36092C10.9932 5.36092 11.0007 5.36092 11.012 5.36092C11.1364 5.35338 11.2608 5.34961 11.389 5.34961C11.5172 5.34961 11.634 5.35338 11.7622 5.36092C11.8451 5.36469 11.9281 5.37223 12.011 5.38354C12.1354 5.39862 12.2598 5.41369 12.3842 5.43631C12.4596 5.44762 12.5312 5.4627 12.6066 5.48155C12.682 5.5004 12.7537 5.51925 12.8253 5.53809C12.9723 5.57956 13.1231 5.6248 13.2663 5.67757C13.5566 5.78312 13.828 5.91506 14.0881 6.06585C14.3445 6.21664 14.5857 6.39005 14.8119 6.5823C14.925 6.68031 15.0306 6.78209 15.1324 6.88764C15.1851 6.94042 15.2341 6.9932 15.2831 7.04974C15.3321 7.10629 15.3811 7.16283 15.4264 7.21938C15.4754 7.27592 15.5206 7.33624 15.5621 7.39655C15.6941 7.5775 15.8109 7.77352 15.9202 7.97332C15.9391 8.00724 15.9542 8.04117 15.973 8.0751C16.0069 8.14295 16.0371 8.21081 16.071 8.28243C16.0861 8.31636 16.1012 8.35405 16.1163 8.38798C16.1426 8.45961 16.169 8.53123 16.1954 8.60285C16.2067 8.64055 16.2218 8.67448 16.2331 8.71218C16.2444 8.74987 16.2557 8.78757 16.2671 8.82527C16.3085 8.97605 16.3462 9.12684 16.3688 9.27763C16.3914 9.42842 16.4103 9.57544 16.4141 9.72622C16.4254 9.96748 16.4178 10.2012 16.3914 10.4312C16.3839 10.4839 16.3764 10.5367 16.3688 10.5895C16.3575 10.6611 16.3462 10.729 16.3274 10.7968C16.3123 10.8647 16.2934 10.9363 16.2784 11.0041C16.2482 11.1059 16.218 11.2077 16.1803 11.3057C16.071 11.6035 15.9278 11.8863 15.7468 12.1464C15.6262 12.3198 15.4905 12.4819 15.3397 12.6327C15.2907 12.6817 15.2379 12.7307 15.1851 12.7759C15.1097 12.8438 15.023 12.9116 14.9363 12.9757C14.9062 12.9983 14.876 13.0172 14.8496 13.0398C14.8195 13.0586 14.7893 13.0813 14.7592 13.1001C14.6988 13.1378 14.6348 13.1755 14.5707 13.2094C14.5367 13.2283 14.5028 13.2433 14.4689 13.2584C14.4086 13.2886 14.352 13.3112 14.2879 13.3376C14.2352 13.3602 14.1786 13.3791 14.1183 13.3979C14.0618 13.4168 14.0014 13.4318 13.9411 13.4507C13.8167 13.4808 13.6848 13.5072 13.5491 13.5185C13.5151 13.5185 13.4812 13.5223 13.4473 13.5261C13.3116 13.5336 13.1759 13.5261 13.0326 13.5072C12.8404 13.4808 12.6669 13.4243 12.5124 13.3489C12.4332 13.3112 12.3616 13.2697 12.29 13.2245C12.2183 13.1793 12.1543 13.1265 12.0902 13.0737C12.06 13.0473 12.0299 13.0172 11.9997 12.987C11.9394 12.9267 11.8866 12.8626 11.8376 12.7948C11.8112 12.7608 11.7886 12.7231 11.766 12.6892C11.7434 12.6515 11.7245 12.6138 11.7019 12.5761C11.6642 12.497 11.6303 12.4178 11.6039 12.3311C11.5926 12.2896 11.5813 12.2444 11.5699 12.2029C11.5511 12.1162 11.5473 12.0295 11.5436 11.939C11.5436 11.8863 11.5436 11.8335 11.5511 11.7845C11.5586 11.743 11.5662 11.6978 11.5737 11.6601C11.619 11.4867 11.7019 11.3434 11.7961 11.2341C11.8941 11.1248 12.0035 11.0381 12.1241 10.9778C12.2485 10.9174 12.3804 10.8835 12.5124 10.8835C12.5275 10.8835 12.5463 10.8835 12.5614 10.8835C12.6292 10.8911 12.6933 10.9061 12.7499 10.9288C12.78 10.9401 12.8064 10.9551 12.8291 10.9702C12.8404 10.9778 12.8554 10.9853 12.8667 10.9928L12.9195 11.0343C12.9195 11.0343 12.9421 11.0532 12.9534 11.0645C12.9647 11.0758 12.9723 11.0871 12.9761 11.1022C12.9911 11.1361 12.9987 11.1738 12.9911 11.2115C12.9911 11.219 12.9911 11.2266 12.9874 11.2303C12.5991 10.9551 12.0902 11.2303 12.0562 11.7279C12.0412 11.9617 12.1467 12.1841 12.3126 12.3499C12.78 12.8211 13.6056 12.7985 14.2728 12.3688C15.0117 11.8486 15.302 11.0305 15.1437 9.9901C15.0117 9.13061 14.5782 8.33144 13.877 7.81499C13.402 7.46818 12.8102 7.21938 12.143 7.17791C11.1666 7.1176 10.194 7.36263 9.35334 7.864C7.73989 8.83281 6.99348 10.4425 7.5137 12.9003C8.05655 15.5579 9.98288 16.6021 12.437 16.7982C13.8883 16.915 15.3435 16.5154 16.4819 15.6107C17.8805 14.4987 18.6646 12.8098 18.2424 11.0795C18.2537 11.0758 18.2612 11.072 18.2726 11.0682C18.2763 11.0682 18.2839 11.0682 18.2876 11.0645C18.2989 11.0645 18.3065 11.0645 18.3178 11.0645C18.3291 11.0645 18.3404 11.0645 18.3517 11.0645C18.3819 11.0682 18.412 11.0833 18.4309 11.1022C18.4347 11.1059 18.4422 11.1135 18.446 11.1172C18.4573 11.1286 18.4648 11.1399 18.4723 11.1512C18.4761 11.1587 18.4799 11.1625 18.4837 11.17L18.5214 11.2605C18.6533 11.5771 18.7325 11.9126 18.7777 12.2632C18.8154 12.61 18.8192 12.9719 18.7777 13.3301L18.7551 13.3489Z" fill="#8DEE85"/>
<path d="M1 12C1 5.92322 5.92705 1 12.0001 1V22.9999C5.92705 22.9999 1 18.0767 1 12Z" fill="#8DEE85" stroke="#8DEE85" stroke-miterlimit="10" stroke-linejoin="round"/>
<path d="M12 22.9999V1C12.2036 1 12.4109 1.00377 12.6107 1.01885C12.8934 1.03393 13.1724 1.06032 13.4476 1.09424C13.7039 1.12817 13.9565 1.17341 14.2053 1.22241C19.2266 2.244 23.0001 6.67716 23.0001 12C23.0001 17.3228 19.2266 21.7559 14.2053 22.7775C13.9565 22.8265 13.7039 22.8718 13.4476 22.9057C13.1724 22.9396 12.8934 22.966 12.6107 22.9811C12.4109 22.9962 12.2036 22.9999 12 22.9999Z" stroke="#8DEE85" stroke-miterlimit="10" stroke-linejoin="round"/>
</g>
<defs>
<clipPath id="clip0_12_105917">
<rect width="24" height="24" rx="12" fill="white"/>
</clipPath>
</defs>
</svg>
