<svg width="22" height="22" viewBox="0 0 22 22" fill="none" xmlns="http://www.w3.org/2000/svg">
<path fill-rule="evenodd" clip-rule="evenodd" d="M8.15227 1.09445C8.25739 1.19955 8.32892 1.33351 8.35776 1.47933C8.3866 1.62515 8.37146 1.77625 8.31427 1.91345C7.85709 3.01067 7.62255 4.1878 7.62427 5.37645C7.62427 7.7634 8.57248 10.0526 10.2603 11.7404C11.9481 13.4282 14.2373 14.3765 16.6243 14.3765C17.8129 14.3782 18.9901 14.1436 20.0873 13.6865C20.2244 13.6294 20.3753 13.6142 20.521 13.643C20.6667 13.6718 20.8006 13.7432 20.9057 13.8482C21.0108 13.9532 21.0823 14.087 21.1112 14.2326C21.1402 14.3783 21.1252 14.5293 21.0683 14.6665C20.2703 16.5797 18.924 18.214 17.199 19.3636C15.4739 20.5131 13.4473 21.1265 11.3743 21.1265C5.57527 21.1265 0.874268 16.4255 0.874268 10.6265C0.874268 6.25845 3.54127 2.51445 7.33427 0.932453C7.47134 0.875473 7.62224 0.860451 7.76786 0.889289C7.91347 0.918128 8.04726 0.98953 8.15227 1.09445Z" fill="white" fill-opacity="0.9"/>
</svg>
