<svg width="20" height="20" viewBox="0 0 20 20" fill="none" xmlns="http://www.w3.org/2000/svg">
<g opacity="0.6" clip-path="url(#clip0_1793_107020)">
<path d="M9.4803 19.9981H0.826148C0.492281 19.9981 0.190479 19.7982 0.0622137 19.4889C-0.0660519 19.1796 0.00373963 18.8251 0.239522 18.5893L2.76522 16.0452C3.08777 15.7209 3.61027 15.719 3.9347 16.0415C4.25914 16.364 4.26103 16.8864 3.93848 17.2107L2.81238 18.3442H9.47842C9.93489 18.3442 10.3046 18.7138 10.3046 19.1702C10.3046 19.6266 9.93489 19.9962 9.47842 19.9962L9.4803 19.9981Z" fill="white"/>
<path d="M9.48009 19.9982C4.25138 19.9982 -0.000244141 15.7455 -0.000244141 10.5196C-0.000244141 5.29379 4.25138 1.04297 9.48009 1.04297C9.93657 1.04297 10.3063 1.41261 10.3063 1.86899C10.3063 2.32538 9.93657 2.69502 9.48009 2.69502C5.16433 2.69502 1.654 6.20469 1.654 10.5196C1.654 14.8346 5.16433 18.3424 9.48009 18.3424C13.7959 18.3424 17.3043 14.8327 17.3043 10.5196C17.3043 10.0632 17.674 9.69361 18.1305 9.69361C18.5869 9.69361 18.9567 10.0632 18.9567 10.5196C18.9567 15.7455 14.705 19.9963 9.47821 19.9963L9.48009 19.9982Z" fill="white"/>
<path d="M7.46573 7.32031H13.5678C13.5678 8.218 12.8397 8.94785 11.9399 8.94785H5.83789C5.83789 8.05016 6.56599 7.32031 7.46573 7.32031Z" fill="white"/>
<path d="M8.96719 12.4492H5.83789C5.83789 13.3469 6.56599 14.0768 7.46573 14.0768H10.595C10.595 13.1791 9.86694 12.4492 8.96719 12.4492Z" fill="white"/>
<path d="M12.7529 14.0749C13.2019 14.0749 13.5659 13.711 13.5659 13.262C13.5659 12.8131 13.2019 12.4492 12.7529 12.4492C12.3039 12.4492 11.9399 12.8131 11.9399 13.262C11.9399 13.711 12.3039 14.0749 12.7529 14.0749Z" fill="white"/>
<path d="M16.2445 0C14.1696 0 12.4871 1.68223 12.4871 3.75672C12.4871 5.83121 14.1696 7.51155 16.2445 7.51155C18.3194 7.51155 20 5.83121 20 3.75672C20 1.68223 18.3175 0 16.2445 0ZM17.0575 4.13013C17.0575 4.57897 16.8745 4.98444 16.5802 5.27864C16.286 5.57284 15.8786 5.75578 15.4296 5.75578V3.38142C15.4296 2.93258 15.6107 2.52522 15.9068 2.23102C16.2011 1.93682 16.6067 1.75578 17.0575 1.75578V4.13013Z" fill="white"/>
</g>
<defs>
<clipPath id="clip0_1793_107020">
<rect width="20" height="20" fill="white"/>
</clipPath>
</defs>
</svg>
