<svg width="25" height="24" viewBox="0 0 25 24" fill="none" xmlns="http://www.w3.org/2000/svg">
<g clip-path="url(#clip0_1482_61557)">
<path d="M3.49894 10.3099C3.99255 10.3099 4.39234 9.90024 4.39234 9.39444V5.29161C4.39234 4.48692 4.92267 3.83482 5.57538 3.83482H12.9001C13.3937 3.83482 13.7935 3.42516 13.7935 2.91936C13.7935 2.41356 13.3937 2.00391 12.9001 2.00391H5.57538C3.93748 2.00391 2.6035 3.4795 2.6035 5.2937V9.39444C2.6035 9.90024 3.00328 10.3099 3.4969 10.3099H3.49894Z" fill="white"/>
<path opacity="0.5" d="M5.17965 10.9366L7.01541 20.1664H18.7847L20.6184 10.9366H18.6133C17.11 12.4436 15.1131 13.2629 12.9 13.2629C10.6869 13.2629 8.68799 12.4436 7.18675 10.9366H5.17965ZM2.94207 8.86328H3.02978C3.37041 9.01795 3.74572 9.10364 4.14143 9.10364H7.97C9.17752 10.6106 10.9011 11.4299 12.9 11.4299C14.899 11.4299 16.6225 10.6106 17.8301 9.10364H21.6586C22.0543 9.10364 22.4297 9.01795 22.7703 8.86328H22.856L20.2451 21.9995H5.55496L2.94207 8.86328Z" fill="white"/>
<path d="M22.3009 10.3081C22.7945 10.3081 23.1943 9.89842 23.1943 9.39262V5.28979C23.1964 3.4756 21.8624 2 20.2245 2H12.8998C12.4062 2 12.0064 2.40966 12.0064 2.91546C12.0064 3.42126 12.4062 3.83091 12.8998 3.83091H20.2245C20.8772 3.83091 21.4075 4.48511 21.4075 5.2877V9.38844C21.4075 9.89424 21.8073 10.3039 22.3009 10.3039V10.3081Z" fill="white"/>
<path d="M1.3999 9.00781H9.40992L9.81379 9.64947C10.5093 10.7509 11.5761 11.3341 12.8999 11.3341C14.2237 11.3341 15.2884 10.7509 15.984 9.64947L16.3899 9.00781H24.3999C24.3999 10.1532 23.7309 11.1376 22.7702 11.5744C22.4295 11.7291 22.0542 11.8148 21.6585 11.8148H17.8299C16.6224 13.3217 14.8968 14.1411 12.8999 14.1411C10.903 14.1411 9.17739 13.3217 7.96987 11.8148H4.1413C3.74559 11.8148 3.37028 11.7291 3.02965 11.5744C2.71961 11.4344 2.44016 11.2358 2.20356 10.9934C1.70586 10.4855 1.3999 9.78323 1.3999 9.00781Z" fill="white"/>
</g>
<defs>
<clipPath id="clip0_1482_61557">
<rect width="23" height="20" fill="white" transform="matrix(-1 0 0 1 24.3999 2)"/>
</clipPath>
</defs>
</svg>
