<svg width="24" height="24" viewBox="0 0 24 24" fill="none" xmlns="http://www.w3.org/2000/svg">
<g opacity="0.5">
<path d="M22.4243 11.3945L19.7964 21.9963H5.01988L2.39404 11.3945H12.4091H22.4243Z" fill="white"/>
</g>
<path d="M22.7628 8.87846V5.22896C22.7628 3.44831 21.4212 2 19.7739 2H5.04255C3.39525 2 2.05361 3.44831 2.05361 5.22896V8.87641H0.843262C0.843262 10.3986 2.07823 11.6335 3.60039 11.6335H7.45093C8.66538 13.1126 10.3988 13.9168 12.4093 13.9168C14.4197 13.9168 16.1531 13.1126 17.3676 11.6335H21.2181C22.7403 11.6335 23.9752 10.3986 23.9752 8.87641H22.7649L22.7628 8.87846ZM15.9172 8.87846L15.509 9.50825C14.8094 10.5894 13.7365 11.1617 12.4051 11.1617C11.0738 11.1617 10.0009 10.5894 9.30133 9.50825L8.89309 8.87846H3.85272V5.22896C3.85272 4.43916 4.38609 3.79911 5.04255 3.79911H19.776C20.4324 3.79911 20.9658 4.44121 20.9658 5.22896V8.87641H15.9193L15.9172 8.87846Z" fill="white"/>
</svg>
