<svg width="24" height="23" viewBox="0 0 24 23" fill="none" xmlns="http://www.w3.org/2000/svg">
<g clip-path="url(#clip0_1572_55418)">
<path d="M12.7158 12.4316C12.7004 12.4752 12.6894 12.4967 12.6816 12.5094C12.6938 12.4841 12.7054 12.4581 12.7158 12.4316Z" fill="white"/>
<path d="M12.0003 0C5.64875 0 0.5 5.14875 0.5 11.5003C0.5 17.8518 5.64875 23 12.0003 23C18.3518 23 23.5 17.8512 23.5 11.5003C23.5 5.1493 18.3512 0 12.0003 0ZM15.7785 20.0196C14.5322 20.7434 13.1137 21.1832 11.6786 21.2472C13.0662 21.0077 14.3909 20.4493 15.5358 19.6366C18.6061 17.5263 20.0616 13.2426 18.189 9.88536C17.8757 9.32425 17.49 8.80397 17.0177 8.37251C16.3192 7.74078 15.4696 7.26023 14.5493 7.05388C14.2889 6.9965 14.0235 6.95953 13.757 6.94629C13.7426 6.94408 13.7046 6.94353 13.6902 6.94408C13.5308 6.94574 13.4138 6.93415 13.2803 6.94132C12.7964 6.95788 12.2938 7.08312 11.8458 7.2536C10.4389 7.77996 9.26369 9.42025 9.82149 10.9083C9.99915 11.3988 10.4455 11.8799 10.9834 11.8561C11.0563 11.8545 11.1616 11.8059 11.2052 11.7651C11.2074 11.7601 11.2102 11.7557 11.2124 11.7513C10.9189 10.9629 11.3928 9.84564 12.5266 9.57363C13.4662 9.32977 14.3915 9.71653 15.0353 10.4034C15.5634 10.9645 15.8552 11.7276 15.9269 12.4813C15.9788 13.102 15.8795 13.7166 15.6715 14.2976C15.0927 15.8838 13.64 17.0137 12.0317 17.3878C9.62397 17.9837 7.02587 16.894 5.52461 14.9795C3.54721 12.4553 3.44017 8.93473 5.01868 6.20311C6.48242 3.59618 9.35307 1.89078 12.3208 1.75285C9.17376 2.29244 6.33952 4.47288 5.35082 7.53499C4.82391 9.13556 4.84267 10.9215 5.49758 12.4785C5.89041 13.374 6.45373 14.2164 7.22063 14.8333C8.92714 16.249 11.5043 16.5889 13.2544 15.0816C13.7945 14.6027 14.1862 13.9555 14.2927 13.2393C14.3258 13.0197 14.333 12.8084 14.3093 12.5944C14.2795 12.4134 14.232 12.207 14.1708 12.0526C14.0836 11.8484 13.9639 11.647 13.8066 11.4903C13.7007 11.3888 13.5655 11.2873 13.4359 11.2244C13.2753 11.1488 13.0933 11.124 12.9255 11.1725C12.8726 11.1852 12.8168 11.2057 12.7893 11.2498C12.7915 11.257 12.7931 11.2636 12.7953 11.2702C12.797 11.2763 12.7986 11.2823 12.8003 11.2879C12.9095 11.6542 12.8935 12.0266 12.7468 12.3864L12.7142 12.4636L12.6739 12.5232C12.6739 12.5232 12.6745 12.5221 12.6745 12.521C12.6734 12.5232 12.6723 12.5248 12.6723 12.5254C12.4869 12.8995 12.1382 13.1742 11.7719 13.3348C11.0684 13.6454 10.2463 13.5058 9.61404 13.1246C9.02534 12.7676 8.61541 12.2484 8.35334 11.6421C7.80326 10.3538 8.07195 8.83321 8.85155 7.70713C9.44687 6.83374 10.3186 6.1849 11.3073 5.8169C12.0665 5.54379 12.8808 5.40034 13.682 5.46434C15.2836 5.53662 16.8119 6.29028 17.9391 7.4125C19.0393 8.511 19.7377 9.9786 19.9849 11.5052C20.5394 14.8587 18.7137 18.3743 15.7785 20.0196Z" fill="white"/>
<path d="M12.6739 12.5215C12.6739 12.5215 12.6734 12.523 12.6734 12.5235C12.6734 12.5235 12.6732 12.5238 12.6729 12.5245L12.6719 12.5255C12.6719 12.525 12.6729 12.5235 12.6739 12.5215Z" fill="white"/>
</g>
<defs>
<clipPath id="clip0_1572_55418">
<rect width="23" height="23" fill="white" transform="translate(0.5)"/>
</clipPath>
</defs>
</svg>
