<svg width="24" height="24" viewBox="0 0 24 24" fill="none" xmlns="http://www.w3.org/2000/svg">
<path d="M12 21.9999C17.2466 21.9999 21.4999 17.7466 21.4999 12.5C21.4999 7.25328 17.2466 3 12 3C6.75328 3 2.5 7.25328 2.5 12.5C2.5 17.7466 6.75328 21.9999 12 21.9999Z" stroke="white" stroke-miterlimit="10"/>
<path d="M18.5958 12.5053C18.3916 11.2438 17.8146 10.0319 16.9059 9.12446C15.9747 8.19743 14.7123 7.5744 13.3892 7.51515C12.7274 7.46182 12.0547 7.58032 11.4276 7.80638C10.6108 8.10992 9.89072 8.64636 9.39895 9.36783C8.75496 10.298 8.533 11.5541 8.9874 12.6179C9.20388 13.1192 9.54252 13.5477 10.0288 13.8425C10.5511 14.1575 11.2302 14.2732 11.8113 14.0162C12.1139 13.884 12.402 13.6566 12.5551 13.348V13.3476C12.5551 13.3467 12.5565 13.3444 12.5583 13.3407C12.5574 13.3426 12.5565 13.3444 12.556 13.3462L12.5893 13.297L12.6162 13.2327C12.7242 12.9675 12.7456 12.6936 12.6846 12.4224C12.6791 12.3991 12.6723 12.37 12.6645 12.3403C12.6618 12.3308 12.659 12.3207 12.6563 12.3112C12.6545 12.3057 12.6531 12.3002 12.6513 12.2948C12.6741 12.2578 12.7197 12.241 12.7639 12.2305C12.9024 12.1904 13.0528 12.2104 13.1854 12.2733C13.2926 12.3253 13.4042 12.4087 13.4917 12.493C13.6216 12.6224 13.7205 12.7888 13.7925 12.957C13.8431 13.0846 13.8823 13.2555 13.9069 13.405C13.9265 13.5818 13.9206 13.7564 13.8932 13.9378C13.8053 14.5294 13.4817 15.064 13.0355 15.4596C11.5898 16.7047 9.46094 16.4235 8.05125 15.254C7.41774 14.7449 6.95241 14.0485 6.6279 13.3093C6.08691 12.0231 6.07141 10.5478 6.50667 9.22564C7.3234 6.69614 9.66466 4.8945 12.2643 4.44922C9.81279 4.5627 7.44144 5.97193 6.2323 8.12542C4.92835 10.3815 5.01677 13.2901 6.65023 15.3748C7.89037 16.9563 10.0366 17.8569 12.0255 17.3642C13.3541 17.0557 14.5541 16.1223 15.0322 14.8119C15.204 14.332 15.2861 13.8243 15.2432 13.3116C15.184 12.689 14.9429 12.0587 14.5067 11.5952C13.9748 11.0277 13.2105 10.7078 12.4343 10.9097C11.4977 11.1339 11.1062 12.0573 11.3487 12.7086C11.3469 12.7122 11.3446 12.7159 11.3428 12.72C11.3068 12.7537 11.2197 12.7934 11.1596 12.7952C10.7152 12.8148 10.3465 12.4174 10.1997 12.0122C9.73895 10.783 10.7097 9.42799 11.8719 8.99274C12.242 8.85191 12.6572 8.7489 13.0569 8.73523C13.1672 8.72931 13.2638 8.73842 13.3956 8.73705C13.4074 8.73705 13.4389 8.73751 13.4507 8.73888C13.6708 8.75027 13.8901 8.78035 14.1052 8.82821C14.8654 8.99866 15.5673 9.39564 16.1443 9.91749C16.5344 10.2734 16.853 10.7037 17.1119 11.1672C18.6587 13.9405 17.4564 17.4791 14.9201 19.2224C13.9744 19.8933 12.8801 20.355 11.7338 20.5528C12.9193 20.4999 14.0911 20.1362 15.1206 19.5387C17.5453 18.1796 19.0534 15.2755 18.5954 12.5053H18.5958ZM12.5907 13.2696C12.5779 13.3052 12.5688 13.3234 12.5624 13.3339C12.5724 13.3129 12.582 13.2915 12.5907 13.2696Z" fill="white"/>
<path d="M12.5593 13.3398C12.5593 13.3398 12.5572 13.344 12.5567 13.3461C12.5562 13.3461 12.5562 13.3471 12.5557 13.3476C12.5557 13.3466 12.5572 13.344 12.5593 13.3398Z" fill="white"/>
</svg>
