<svg width="25" height="24" viewBox="0 0 25 24" fill="none" xmlns="http://www.w3.org/2000/svg">
<g clip-path="url(#clip0_1572_56410)">
<path d="M15.2966 21.707H9.9082C10.16 23.014 11.2383 23.9977 12.5288 23.9977H12.676C13.4139 23.9977 14.0837 23.676 14.5682 23.1553C14.9308 22.7656 15.1889 22.2669 15.2966 21.707Z" fill="white"/>
<path d="M15.4872 19.918H9.71875C9.79 20.226 9.83117 20.5391 9.84542 20.8557H15.3589C15.3748 20.5391 15.4175 20.226 15.4872 19.918Z" fill="white"/>
<path d="M12.6014 9.5589C14.7786 9.5589 16.5505 11.4615 16.5505 13.8015C16.5505 14.7545 16.2639 15.6514 15.7223 16.4002C15.6463 16.4921 15.5703 16.5908 15.4943 16.6946C15.279 16.9805 15.0858 17.2749 14.9148 17.5761H10.2896C10.1202 17.2783 9.92858 16.9873 9.7164 16.7031C9.64673 16.6061 9.56756 16.5074 9.47889 16.3985C8.93735 15.6497 8.65234 14.7528 8.65234 13.8015C8.65234 11.4615 10.4226 9.5589 12.5998 9.5589M12.5998 8.06641C9.65306 8.06641 7.26367 10.6344 7.26367 13.8015C7.26367 15.1442 7.69278 16.3781 8.41166 17.3549C8.48766 17.4468 8.5605 17.5387 8.62859 17.6323C8.97852 18.0986 9.25246 18.5785 9.45038 19.0686H15.7508C15.9504 18.5768 16.2243 18.0952 16.5758 17.6289C16.6439 17.537 16.7151 17.4451 16.7896 17.3549C17.5084 16.3781 17.9376 15.1442 17.9376 13.8015C17.9376 10.6344 15.5482 8.06641 12.5998 8.06641Z" fill="white"/>
<g opacity="0.5">
<path d="M3.03371 11.5002C3.16038 11.4134 3.28072 11.3283 3.41214 11.25C3.38048 11.3572 3.36148 11.4661 3.33772 11.575L3.30289 11.7384C3.29022 11.7929 3.27755 11.8473 3.26964 11.9018C3.2348 12.1213 3.19205 12.3409 3.17146 12.5621C3.11129 13.0046 3.09546 13.4504 3.08754 13.8963H0.601562C1.02275 13.3364 1.45978 12.831 1.93797 12.3902C2.16915 12.1673 2.41934 11.9631 2.66002 11.7725C2.72019 11.7248 2.78352 11.6789 2.84686 11.6329L3.03371 11.5002Z" fill="white"/>
<path d="M6.51563 10.125C6.35887 10.4075 6.22903 10.707 6.10869 11.0099L6.02476 11.238L6.0026 11.2958C5.99626 11.3146 5.98993 11.335 5.98518 11.3537L5.94876 11.4711L5.91076 11.5869L5.89176 11.6464C5.88701 11.6651 5.88226 11.6856 5.87592 11.7043L5.81417 11.9425C5.79042 12.0208 5.77775 12.1025 5.75875 12.1825L5.73341 12.3016C5.7255 12.3425 5.716 12.3816 5.70966 12.4224C5.68433 12.5841 5.65266 12.7458 5.63682 12.9092C5.5909 13.2359 5.58299 13.5678 5.57507 13.8979C5.16813 13.5678 4.76277 13.1781 4.40333 12.7373C4.21649 12.5143 4.05023 12.2812 3.8808 12.0327C3.83647 11.9715 3.79688 11.9085 3.7573 11.8455L3.64012 11.6515C3.56254 11.5222 3.4802 11.3877 3.41211 11.2516C3.54037 11.1733 3.66704 11.0984 3.79372 11.027C3.82538 11.0099 3.85705 10.9912 3.88872 10.9742L3.98689 10.9232L4.18165 10.8261L4.37483 10.7342C4.4065 10.7206 4.43817 10.7053 4.47142 10.6917L4.56959 10.6509C4.70102 10.5947 4.83086 10.5453 4.95912 10.4977C5.48482 10.3122 5.99943 10.1846 6.51563 10.125Z" fill="white"/>
<path d="M2.21094 7.4491C2.30278 8.15706 2.4627 8.83948 2.66221 9.47426C2.71447 9.63423 2.7683 9.7908 2.82372 9.94396L2.86489 10.058C2.87914 10.0954 2.89498 10.1346 2.91081 10.172L3.00423 10.3966L3.09924 10.6162L3.14674 10.7234C3.16416 10.7591 3.18158 10.7949 3.199 10.8323C3.26867 10.9753 3.33992 11.1148 3.41117 11.251C3.83712 9.52531 4.70325 7.93242 5.8734 6.66797C4.70642 6.67307 3.44759 6.91643 2.21094 7.4474V7.4491Z" fill="white"/>
<path d="M7.6326 8.55918C8.07121 8.09799 8.55733 7.68445 9.09094 7.3594C8.14247 6.91182 7.05307 6.67357 5.875 6.67017C6.4672 6.0456 7.12432 5.48911 7.84637 5.04664C8.20264 4.81859 8.57949 4.62799 8.9611 4.4527L9.25087 4.33017L9.3237 4.29954C9.34746 4.28933 9.37279 4.28082 9.39654 4.27231L9.5438 4.21785L9.69106 4.1634L9.76548 4.13617C9.79081 4.12766 9.81457 4.12085 9.8399 4.11234L10.1392 4.02044C10.0125 3.94386 9.88265 3.86728 9.74965 3.7924C9.71639 3.77368 9.68314 3.75496 9.64989 3.73624L9.55013 3.68519L9.34587 3.58308L9.13686 3.48267C9.10202 3.46565 9.0656 3.44863 9.03077 3.43332L8.92468 3.38907C8.78217 3.32951 8.6365 3.27165 8.48765 3.21549C7.89704 3.00106 7.26208 2.82917 6.60338 2.73047C6.10776 4.06129 5.88292 5.41253 5.87817 6.66846C5.88292 7.93461 6.1046 9.10546 6.51945 10.1248C6.82189 9.55133 7.20666 9.03058 7.63577 8.55748L7.6326 8.55918Z" fill="white"/>
<path d="M10.1258 6.82922L10.1796 6.8054C10.197 6.79859 10.216 6.79349 10.2334 6.78668L10.3427 6.74754L10.4504 6.70669L10.5042 6.68627C10.5232 6.67946 10.5406 6.67606 10.5596 6.66925L10.7797 6.60118C10.8526 6.57565 10.9286 6.56204 11.003 6.54332L11.1154 6.51439C11.1534 6.50588 11.1898 6.49567 11.2278 6.48886C11.3783 6.46163 11.5287 6.42589 11.6823 6.41058C11.9847 6.36123 12.2935 6.35272 12.6023 6.34251C12.2935 5.90514 11.9325 5.46948 11.5224 5.08487C11.3165 4.88405 11.0996 4.70536 10.8668 4.52157C10.8098 4.47562 10.7512 4.43307 10.6926 4.39053L10.5137 4.26459C10.3934 4.1812 10.2667 4.09271 10.1416 4.01953C10.0688 4.15738 9.9991 4.29522 9.9326 4.43137C9.91676 4.46541 9.89934 4.49944 9.88351 4.53348L9.83601 4.63899L9.74575 4.84831L9.66025 5.05594C9.646 5.08997 9.63333 5.12401 9.61908 5.15975L9.58108 5.26696C9.53041 5.40821 9.4829 5.54776 9.43857 5.68561C9.26597 6.25061 9.1488 6.8037 9.0918 7.35849C9.35465 7.18831 9.63333 7.05046 9.9136 6.91942L10.1274 6.82922H10.1258Z" fill="white"/>
<path d="M10.5924 3.90329C10.643 3.89138 10.6937 3.87777 10.7444 3.86926C10.9486 3.83182 11.1529 3.78587 11.3588 3.76204C11.7704 3.69737 12.1853 3.68036 12.6002 3.67185C13.015 3.68036 13.4315 3.69737 13.8416 3.76204C14.0474 3.78587 14.2517 3.83011 14.4559 3.86926C14.5066 3.87777 14.5573 3.89138 14.6079 3.90329L14.76 3.94073C14.8613 3.96796 14.9626 3.98668 15.0624 4.02072C14.9896 3.88117 14.912 3.75183 14.8296 3.61569L14.7061 3.41317C14.6634 3.3451 14.6206 3.27703 14.5763 3.21236C14.3989 2.95368 14.2089 2.68479 14.0015 2.43633C13.5898 1.92238 13.1195 1.45268 12.5986 1C12.0776 1.45438 11.6074 1.92408 11.1957 2.43633C10.9898 2.68479 10.7998 2.95368 10.6209 3.21236C10.5765 3.27703 10.5338 3.3451 10.491 3.41317L10.3675 3.61569C10.2868 3.75183 10.2076 3.88117 10.1348 4.02072C10.2345 3.98838 10.3359 3.96796 10.4372 3.94073L10.5892 3.90329H10.5924Z" fill="white"/>
<path d="M14.5112 4.39443C14.4526 4.43698 14.394 4.47952 14.337 4.52547C14.1058 4.70927 13.8889 4.88626 13.683 5.08877C13.2729 5.47338 12.9103 5.91075 12.6016 6.34641C12.9103 6.35492 13.2175 6.36513 13.5215 6.41448C13.6735 6.4298 13.824 6.46554 13.9744 6.49277C14.0124 6.49787 14.0504 6.50808 14.0868 6.51829L14.1992 6.54723C14.2737 6.56765 14.3497 6.57956 14.4225 6.60509L14.6426 6.67316C14.6616 6.67827 14.679 6.68337 14.698 6.69018L14.7519 6.7106L14.8595 6.75144L14.9688 6.79059C14.9862 6.79739 15.0052 6.8025 15.0226 6.80931L15.0765 6.83313L15.2902 6.92333C15.5721 7.05266 15.8492 7.19221 16.112 7.36239C16.0566 6.8076 15.9378 6.25451 15.7668 5.68951C15.7225 5.55167 15.675 5.41212 15.6243 5.27087L15.5863 5.16365C15.5721 5.12791 15.5594 5.09558 15.5452 5.05984L15.4596 4.85222L15.3694 4.6429L15.3219 4.53739C15.3061 4.50335 15.2886 4.46931 15.2728 4.43528C15.2063 4.29913 15.1366 4.16299 15.0638 4.02344C14.9371 4.09832 14.812 4.18681 14.6917 4.2685L14.5128 4.39443H14.5112Z" fill="white"/>
<path d="M19.3886 11.9425L19.3253 11.7043C19.3205 11.6856 19.3158 11.6651 19.3094 11.6464L19.2904 11.5869L19.254 11.4711L19.2176 11.3537C19.2112 11.335 19.2065 11.3146 19.2002 11.2958L19.178 11.238L19.0941 11.0099C18.9721 10.707 18.8439 10.4075 18.6855 10.125C19.2033 10.1846 19.7179 10.3122 20.2421 10.4977C20.3703 10.5453 20.5017 10.5947 20.6316 10.6509L20.7313 10.6917C20.7646 10.7053 20.7947 10.7206 20.8279 10.7342L21.0195 10.8261L21.2143 10.9232L21.3125 10.9742C21.3457 10.9912 21.3758 11.0099 21.4075 11.027C21.5341 11.0984 21.6624 11.1733 21.7906 11.2516C21.721 11.3877 21.6386 11.5222 21.5626 11.6515L21.4439 11.8455C21.4043 11.9085 21.3647 11.9715 21.322 12.0327C21.1509 12.2812 20.9847 12.5143 20.7978 12.7373C20.44 13.1781 20.033 13.5678 19.6277 13.8979C19.6198 13.5678 19.6103 13.2359 19.5643 12.9092C19.5501 12.7458 19.5168 12.5841 19.4931 12.4224C19.4868 12.3816 19.4773 12.3425 19.4693 12.3016L19.4424 12.1825C19.4234 12.1025 19.4123 12.0208 19.3886 11.9425Z" fill="white"/>
<path d="M22.0025 10.8323C21.9329 10.9753 21.8616 11.1148 21.7904 11.251C21.3644 9.52531 20.4983 7.93242 19.3281 6.66797C20.4951 6.67307 21.7524 6.91643 22.9906 7.4474C22.8988 8.15535 22.7388 8.83778 22.5393 9.47256C22.4871 9.63253 22.4332 9.78909 22.3778 9.94226L22.3366 10.0563C22.3208 10.0954 22.3066 10.1329 22.2907 10.172L22.1973 10.3966L22.1023 10.6162L22.0548 10.7251C22.0374 10.7608 22.02 10.7966 22.0025 10.8323Z" fill="white"/>
<path d="M21.8654 11.575C21.8401 11.4661 21.8211 11.3572 21.791 11.25C21.9224 11.3283 22.0412 11.4134 22.1679 11.5002L22.3563 11.6329C22.4196 11.6789 22.483 11.7248 22.5416 11.7725C22.7838 11.9631 23.034 12.1673 23.2636 12.3902C23.7418 12.831 24.1788 13.3364 24.6016 13.8963H22.114C22.1061 13.4504 22.0903 13.0046 22.0317 12.5621C22.0095 12.3409 21.9684 12.1213 21.9319 11.9018C21.924 11.8473 21.9114 11.7929 21.9003 11.7384L21.8654 11.575Z" fill="white"/>
<path d="M18.6861 10.1248C19.101 9.10546 19.3242 7.93461 19.3274 6.66846C19.3227 5.41423 19.0962 4.06129 18.6022 2.73047C17.9435 2.82917 17.3085 3.00106 16.7179 3.21549C16.5691 3.27165 16.4234 3.32951 16.2809 3.38907L16.1748 3.43332C16.14 3.44863 16.1036 3.46565 16.0687 3.48267L15.8597 3.58308L15.6554 3.68519L15.5557 3.73624C15.5224 3.75326 15.4892 3.77368 15.4559 3.7924C15.3229 3.86728 15.1931 3.94386 15.0664 4.02044C16.672 4.47823 18.1541 5.40912 19.3306 6.66676C18.1525 6.67187 17.0631 6.91012 16.1146 7.356C16.6482 7.68104 17.1328 8.09458 17.573 8.55577C18.0021 9.02718 18.3869 9.54963 18.6893 10.1231L18.6861 10.1248Z" fill="white"/>
</g>
</g>
<defs>
<clipPath id="clip0_1572_56410">
<rect width="24" height="23" fill="white" transform="translate(0.601562 1)"/>
</clipPath>
</defs>
</svg>
