<svg width="25" height="24" viewBox="0 0 25 24" fill="none" xmlns="http://www.w3.org/2000/svg">
<g clip-path="url(#clip0_1482_61575)">
<g clip-path="url(#clip1_1482_61575)">
<path d="M10.1299 19.9102H15.0693C14.9706 20.4214 14.734 20.8766 14.4016 21.2325C13.9574 21.7079 13.3434 22.0016 12.6671 22.0016H12.5321C11.3491 22.0016 10.3607 21.1035 10.1299 19.9102Z" fill="white"/>
<path d="M15.2438 18.2773C15.1799 18.5586 15.1407 18.8445 15.1262 19.1335H10.0722C10.0591 18.8445 10.0214 18.5586 9.95605 18.2773H15.2438Z" fill="white"/>
<path d="M17.4919 12.6895C17.4919 13.9155 17.0986 15.042 16.4396 15.9339C16.3714 16.0163 16.3061 16.1002 16.2436 16.1841C15.9214 16.6098 15.6703 17.0496 15.4874 17.4986H9.71201C9.53057 17.0511 9.27947 16.6129 8.95869 16.1872C8.89628 16.1017 8.82951 16.0178 8.75984 15.9339C8.10087 15.042 7.70752 13.9155 7.70752 12.6895C7.70752 9.79785 9.89779 7.45312 12.599 7.45312C15.3002 7.45312 17.4919 9.79785 17.4919 12.6895Z" fill="white"/>
<g opacity="0.5">
<path d="M3.82907 10.5878C3.94519 10.5085 4.0555 10.4309 4.17598 10.3594C4.14695 10.4573 4.12953 10.5567 4.10776 10.6562L4.07582 10.8053C4.06421 10.855 4.0526 10.9048 4.04534 10.9545C4.01341 11.1549 3.97422 11.3554 3.95535 11.5574C3.9002 11.9614 3.88568 12.3685 3.87842 12.7756H1.59961C1.9857 12.2644 2.38631 11.8029 2.82465 11.4004C3.03657 11.1969 3.2659 11.0104 3.48653 10.8364C3.54168 10.7929 3.59974 10.7509 3.6578 10.709L3.82907 10.5878Z" fill="white"/>
<path d="M7.02067 9.33203C6.87698 9.58997 6.75795 9.86344 6.64764 10.14L6.57071 10.3482L6.55039 10.4011C6.54459 10.4182 6.53878 10.4368 6.53443 10.4539L6.50104 10.5611L6.46621 10.6668L6.44879 10.7212C6.44444 10.7382 6.44008 10.7569 6.43428 10.774L6.37767 10.9915C6.3559 11.063 6.34428 11.1376 6.32687 11.2106L6.30364 11.3194C6.29639 11.3567 6.28768 11.3924 6.28187 11.4297C6.25865 11.5773 6.22962 11.7249 6.2151 11.8741C6.17301 12.1724 6.16575 12.4754 6.1585 12.7769C5.78547 12.4754 5.41389 12.1196 5.0844 11.7172C4.91313 11.5136 4.76073 11.3007 4.60542 11.0739C4.56478 11.0179 4.52849 10.9604 4.4922 10.903L4.38479 10.7258C4.31367 10.6077 4.23819 10.485 4.17578 10.3607C4.29335 10.2892 4.40947 10.2208 4.52559 10.1556C4.55462 10.14 4.58365 10.1229 4.61268 10.1074L4.70267 10.0608L4.8812 9.97221L5.05828 9.8883C5.08731 9.87587 5.11634 9.86189 5.14682 9.84946L5.23681 9.81216C5.35728 9.76089 5.4763 9.71583 5.59387 9.67232C6.07576 9.50295 6.54749 9.38642 7.02067 9.33203Z" fill="white"/>
<path d="M3.07422 6.88899C3.1584 7.53538 3.305 8.15847 3.48789 8.73805C3.53579 8.88411 3.58514 9.02706 3.63594 9.1669L3.67368 9.27101C3.68674 9.30519 3.70126 9.34093 3.71577 9.37512L3.80141 9.58022L3.8885 9.78066L3.93204 9.87856C3.94801 9.91119 3.96397 9.94382 3.97994 9.978C4.0438 10.1085 4.10912 10.2359 4.17444 10.3602C4.56488 8.78466 5.35884 7.33028 6.43148 6.17578C5.36174 6.18044 4.20782 6.40264 3.07422 6.88744V6.88899Z" fill="white"/>
<path d="M8.04424 7.89999C8.4463 7.4789 8.8919 7.10132 9.38105 6.80454C8.51162 6.39588 7.513 6.17835 6.43311 6.17524C6.97596 5.60498 7.57832 5.09688 8.24019 4.69289C8.56677 4.48467 8.91222 4.31064 9.26203 4.1506L9.52765 4.03872L9.59442 4.01076C9.61619 4.00143 9.63941 3.99366 9.66118 3.98589L9.79617 3.93617L9.93116 3.88645L9.99938 3.86159C10.0226 3.85382 10.0444 3.8476 10.0676 3.83983L10.3419 3.75593C10.2258 3.68601 10.1068 3.61608 9.98486 3.54771C9.95438 3.53062 9.9239 3.51353 9.89342 3.49644L9.80198 3.44982L9.61474 3.35659L9.42314 3.26492C9.39121 3.24938 9.35783 3.23384 9.32589 3.21986L9.22865 3.17946C9.09801 3.12507 8.96448 3.07224 8.82804 3.02097C8.28664 2.82518 7.7046 2.66825 7.10078 2.57812C6.64647 3.79322 6.44036 5.02696 6.43601 6.17369C6.44036 7.32973 6.64357 8.39877 7.02386 9.32951C7.30109 8.80587 7.6538 8.3304 8.04714 7.89844L8.04424 7.89999Z" fill="white"/>
<path d="M10.3301 6.32318L10.3795 6.30143C10.3955 6.29522 10.4129 6.29055 10.4288 6.28434L10.529 6.2486L10.6277 6.21131L10.677 6.19266C10.6945 6.18645 10.7104 6.18334 10.7278 6.17712L10.9296 6.11497C10.9964 6.09166 11.066 6.07923 11.1343 6.06214L11.2373 6.03573C11.2721 6.02796 11.3055 6.01863 11.3404 6.01242C11.4783 5.98756 11.6161 5.95493 11.7569 5.94094C12.0342 5.89588 12.3172 5.88811 12.6002 5.87879C12.3172 5.47946 11.9863 5.08167 11.6103 4.73051C11.4216 4.54716 11.2228 4.38401 11.0094 4.21619C10.9572 4.17424 10.9035 4.13539 10.8498 4.09655L10.6857 3.98156C10.5754 3.90543 10.4593 3.82463 10.3447 3.75781C10.2779 3.88367 10.214 4.00953 10.1531 4.13384C10.1385 4.16492 10.1226 4.19599 10.1081 4.22707L10.0645 4.32341L9.98178 4.51453L9.9034 4.70409C9.89034 4.73517 9.87873 4.76625 9.86567 4.79888L9.83083 4.89677C9.78438 5.02574 9.74084 5.15315 9.7002 5.27901C9.54199 5.79488 9.43458 6.29988 9.38232 6.80643C9.62327 6.65104 9.87873 6.52518 10.1356 6.40554L10.3316 6.32318H10.3301Z" fill="white"/>
<path d="M10.7583 3.65083C10.8048 3.63996 10.8512 3.62752 10.8977 3.61976C11.0849 3.58557 11.2722 3.54362 11.4609 3.52186C11.8382 3.46282 12.2185 3.44728 12.5988 3.43951C12.9791 3.44728 13.3608 3.46282 13.7368 3.52186C13.9255 3.54362 14.1127 3.58402 14.2999 3.61976C14.3464 3.62752 14.3928 3.63996 14.4393 3.65083L14.5786 3.68502C14.6715 3.70988 14.7644 3.72697 14.8559 3.75805C14.7891 3.63063 14.718 3.51254 14.6425 3.38824L14.5293 3.20333C14.4901 3.14118 14.4509 3.07902 14.4103 3.01998C14.2477 2.7838 14.0735 2.53829 13.8834 2.31143C13.506 1.84218 13.0749 1.41332 12.5974 1C12.1198 1.41487 11.6887 1.84373 11.3114 2.31143C11.1227 2.53829 10.9485 2.7838 10.7845 3.01998C10.7438 3.07902 10.7046 3.14118 10.6654 3.20333L10.5522 3.38824C10.4782 3.51254 10.4056 3.63063 10.3389 3.75805C10.4303 3.72852 10.5232 3.70988 10.6161 3.68502L10.7554 3.65083H10.7583Z" fill="white"/>
<path d="M14.3506 4.10045C14.2969 4.1393 14.2432 4.17814 14.1909 4.2201C13.979 4.38791 13.7801 4.54951 13.5915 4.73442C13.2155 5.08558 12.8831 5.48492 12.6001 5.8827C12.8831 5.89046 13.1647 5.89979 13.4434 5.94485C13.5827 5.95883 13.7206 5.99146 13.8585 6.01632C13.8934 6.02099 13.9282 6.03031 13.9616 6.03963L14.0646 6.06605C14.1329 6.08469 14.2025 6.09557 14.2693 6.11888L14.471 6.18103C14.4885 6.18569 14.5044 6.19035 14.5218 6.19657L14.5712 6.21521L14.6699 6.25251L14.7701 6.28824C14.786 6.29446 14.8034 6.29912 14.8194 6.30534L14.8688 6.32709L15.0647 6.40944C15.3231 6.52753 15.5771 6.65495 15.818 6.81033C15.7672 6.30378 15.6584 5.79879 15.5016 5.28292C15.461 5.15706 15.4174 5.02964 15.371 4.90068L15.3361 4.80278C15.3231 4.77015 15.3115 4.74063 15.2984 4.708L15.22 4.51843L15.1373 4.32731L15.0937 4.23098C15.0792 4.1999 15.0633 4.16882 15.0487 4.13775C14.9878 4.01344 14.9239 3.88913 14.8571 3.76172C14.741 3.83009 14.6264 3.91089 14.516 3.98547L14.352 4.10045H14.3506Z" fill="white"/>
<path d="M18.8212 10.9915L18.7632 10.774C18.7588 10.7569 18.7544 10.7382 18.7486 10.7212L18.7312 10.6668L18.6978 10.5611L18.6645 10.4539C18.6586 10.4368 18.6543 10.4182 18.6485 10.4011L18.6282 10.3482L18.5512 10.14C18.4395 9.86344 18.3219 9.58997 18.1768 9.33203C18.6514 9.38642 19.1231 9.50295 19.6036 9.67232C19.7211 9.71583 19.8416 9.76089 19.9606 9.81216L20.0521 9.84946C20.0825 9.86189 20.1101 9.87587 20.1406 9.8883L20.3162 9.97221L20.4948 10.0608L20.5848 10.1074C20.6152 10.1229 20.6428 10.14 20.6718 10.1556C20.788 10.2208 20.9055 10.2892 21.0231 10.3607C20.9592 10.485 20.8838 10.6077 20.8141 10.7258L20.7052 10.903C20.6689 10.9604 20.6327 11.0179 20.5935 11.0739C20.4367 11.3007 20.2843 11.5136 20.113 11.7172C19.785 12.1196 19.412 12.4754 19.0404 12.7769C19.0331 12.4754 19.0244 12.1724 18.9823 11.8741C18.9693 11.7249 18.9388 11.5773 18.917 11.4297C18.9112 11.3924 18.9025 11.3567 18.8952 11.3194L18.8706 11.2106C18.8531 11.1376 18.843 11.063 18.8212 10.9915Z" fill="white"/>
<path d="M21.2177 9.978C21.1538 10.1085 21.0885 10.2359 21.0232 10.3602C20.6327 8.78466 19.8388 7.33028 18.7661 6.17578C19.8359 6.18044 20.9883 6.40264 22.1234 6.88744C22.0392 7.53383 21.8926 8.15691 21.7097 8.73649C21.6618 8.88255 21.6125 9.0255 21.5617 9.16535L21.5239 9.26946C21.5094 9.30519 21.4963 9.33938 21.4818 9.37512L21.3962 9.58022L21.3091 9.78066L21.2656 9.88011C21.2496 9.91274 21.2336 9.94537 21.2177 9.978Z" fill="white"/>
<path d="M21.0917 10.6562C21.0684 10.5567 21.051 10.4573 21.0234 10.3594C21.1439 10.4309 21.2528 10.5085 21.3689 10.5878L21.5416 10.709C21.5997 10.7509 21.6577 10.7929 21.7114 10.8364C21.9335 11.0104 22.1628 11.1969 22.3733 11.4004C22.8117 11.8029 23.2123 12.2644 23.5998 12.7756H21.3195C21.3123 12.3685 21.2978 11.9614 21.2441 11.5574C21.2237 11.3554 21.186 11.1549 21.1526 10.9545C21.1454 10.9048 21.1337 10.855 21.1236 10.8053L21.0917 10.6562Z" fill="white"/>
<path d="M18.177 9.33342C18.5572 8.40268 18.7619 7.33364 18.7648 6.17759C18.7605 5.03242 18.5529 3.79713 18.1 2.58203C17.4962 2.67215 16.9142 2.82909 16.3728 3.02487C16.2363 3.07615 16.1028 3.12898 15.9722 3.18336L15.8749 3.22376C15.843 3.23775 15.8096 3.25329 15.7777 3.26882L15.5861 3.3605L15.3988 3.45373L15.3074 3.50034C15.2769 3.51588 15.2464 3.53453 15.2159 3.55162C15.094 3.61999 14.975 3.68991 14.8589 3.75983C16.3307 4.17781 17.6893 5.02776 18.7677 6.17604C17.6878 6.1807 16.6892 6.39824 15.8198 6.80534C16.3089 7.10212 16.7531 7.4797 17.1566 7.90079C17.5499 8.3312 17.9026 8.80823 18.1799 9.33187L18.177 9.33342Z" fill="white"/>
</g>
</g>
</g>
<defs>
<clipPath id="clip0_1482_61575">
<rect width="24" height="24" fill="white" transform="translate(0.599609)"/>
</clipPath>
<clipPath id="clip1_1482_61575">
<rect width="22" height="21" fill="white" transform="translate(1.59961 1)"/>
</clipPath>
</defs>
</svg>
